<?xml version="1.0" encoding="UTF-8"?>
<svg version="1.1" xmlns="http://www.w3.org/2000/svg" width="100" height="100">
<path d="M0 0 C2.05078125 0.03255208 4.1015625 0.06510417 6.15234375 0.09765625 C6.83984375 1.84765625 6.83984375 1.84765625 7.15234375 4.09765625 C5.71484375 6.34765625 5.71484375 6.34765625 4.15234375 8.09765625 C4.81234375 8.42765625 5.47234375 8.75765625 6.15234375 9.09765625 C6.15234375 12.06765625 6.15234375 15.03765625 6.15234375 18.09765625 C7.47234375 18.09765625 8.79234375 18.09765625 10.15234375 18.09765625 C10.15234375 17.00453125 10.15234375 15.91140625 10.15234375 14.78515625 C10.15234375 10.68088297 10.28584787 7.10519969 11.15234375 3.09765625 C13.58984375 3.84765625 13.58984375 3.84765625 16.15234375 5.09765625 C17.43214489 8.26933733 17.02966542 10.58836955 16.21484375 13.84765625 C16.02019531 14.646875 15.82554688 15.44609375 15.625 16.26953125 C15.46902344 16.8728125 15.31304687 17.47609375 15.15234375 18.09765625 C16.14234375 17.76765625 17.13234375 17.43765625 18.15234375 17.09765625 C18.21421875 16.04578125 18.27609375 14.99390625 18.33984375 13.91015625 C19.32334175 9.295281 20.43414534 7.94563801 24.15234375 5.09765625 C26.78222691 3.44555016 29.03343828 2.35518055 32.15234375 2.09765625 C36.06870321 3.49488115 39.0953331 5.55034548 41.44921875 8.99609375 C42.76935648 12.94183874 40.86718642 16.49104269 39.15234375 20.09765625 C37.27734375 22.28515625 37.27734375 22.28515625 35.15234375 23.09765625 C32.01474402 22.27590394 30.449785 21.3950975 28.15234375 19.09765625 C28.52734375 15.47265625 28.52734375 15.47265625 29.15234375 12.09765625 C28.82234375 12.09765625 28.49234375 12.09765625 28.15234375 12.09765625 C27.28851947 14.85472041 27.28851947 14.85472041 27.15234375 18.09765625 C28.97694376 21.18544089 30.58457676 22.75699606 33.65234375 24.59765625 C34.47734375 24.76265625 35.30234375 24.92765625 36.15234375 25.09765625 C38.30422401 23.68184098 38.30422401 23.68184098 40.15234375 22.09765625 C40.20528443 26.73290657 40.20560326 31.36327205 40.15576172 35.99853516 C40.15276648 37.83803832 40.21192365 39.67742623 40.28125 41.515625 C40.27540208 46.0360691 40.06710481 48.93994054 37.2109375 52.5546875 C34.63287398 54.92295555 31.96672259 57.01712377 29.15234375 59.09765625 C27.48276943 60.4482364 25.81602239 61.80232028 24.15234375 63.16015625 C21.62536231 65.16664309 19.08579724 67.1479599 16.51171875 69.09375 C11.10165322 73.24848596 6.89484824 77.37740548 3.15234375 83.09765625 C-0.52600924 81.59662431 -2.43932247 79.49209098 -4.97265625 76.47265625 C-9.5110027 71.31544438 -14.40617122 67.25749945 -19.84765625 63.09765625 C-22.54498503 60.98494613 -25.22823169 58.85486562 -27.91015625 56.72265625 C-28.57805176 56.19816895 -29.24594727 55.67368164 -29.93408203 55.13330078 C-34.73403474 51.32489926 -34.73403474 51.32489926 -35.84765625 49.09765625 C-36.00176731 47.06690855 -36.09748078 45.03159204 -36.1640625 42.99609375 C-36.20595703 41.784375 -36.24785156 40.57265625 -36.29101562 39.32421875 C-36.33033203 38.05320313 -36.36964844 36.7821875 -36.41015625 35.47265625 C-36.47493164 33.55453125 -36.47493164 33.55453125 -36.54101562 31.59765625 C-36.64735511 28.43110277 -36.74938458 25.26446872 -36.84765625 22.09765625 C-34.86765625 23.08765625 -32.88765625 24.07765625 -30.84765625 25.09765625 C-28.21000171 23.69808446 -25.90990951 22.27361771 -23.84765625 20.09765625 C-23.20862813 17.19249482 -23.49086759 15.10487499 -23.84765625 12.09765625 C-24.50765625 12.09765625 -25.16765625 12.09765625 -25.84765625 12.09765625 C-25.51765625 12.42765625 -25.18765625 12.75765625 -24.84765625 13.09765625 C-24.47265625 16.47265625 -24.47265625 16.47265625 -24.84765625 20.09765625 C-27.09765625 22.16015625 -27.09765625 22.16015625 -29.84765625 23.09765625 C-32.89439282 22.20155726 -34.79655565 20.47406582 -36.84765625 18.09765625 C-37.971737 15.05568515 -38.31302404 12.31143148 -37.84765625 9.09765625 C-35.49550908 5.8423924 -32.59181488 3.81419436 -28.8984375 2.296875 C-26.05364003 2.02052325 -24.65721185 2.96489331 -22.22265625 4.41015625 C-21.44664063 4.86003906 -20.670625 5.30992188 -19.87109375 5.7734375 C-16.01857009 8.29468368 -16.01857009 8.29468368 -15.43359375 11.04296875 C-15.23828125 13.06119792 -15.04296875 15.07942708 -14.84765625 17.09765625 C-13.85765625 17.42765625 -12.86765625 17.75765625 -11.84765625 18.09765625 C-11.84765625 16.44765625 -11.84765625 14.79765625 -11.84765625 13.09765625 C-10.19765625 12.43765625 -8.54765625 11.77765625 -6.84765625 11.09765625 C-6.84765625 13.40765625 -6.84765625 15.71765625 -6.84765625 18.09765625 C-5.19765625 18.09765625 -3.54765625 18.09765625 -1.84765625 18.09765625 C-1.84765625 17.47117187 -1.84765625 16.8446875 -1.84765625 16.19921875 C-1.84765625 13.16536458 -1.84765625 10.13151042 -1.84765625 7.09765625 C-2.03328125 6.08703125 -2.21890625 5.07640625 -2.41015625 4.03515625 C-2.55453125 3.06578125 -2.69890625 2.09640625 -2.84765625 1.09765625 C-1.84765625 0.09765625 -1.84765625 0.09765625 0 0 Z M-16.16015625 25.22265625 C-17.04703125 26.17140625 -17.93390625 27.12015625 -18.84765625 28.09765625 C-19.6675 28.71447266 -19.6675 28.71447266 -20.50390625 29.34375 C-23.21855538 31.50138386 -24.6325915 33.23985701 -25.48803711 36.65185547 C-25.82529628 41.61951385 -25.66787801 44.87624665 -22.83911133 49.08862305 C-20.04792193 52.11520471 -17.14560234 54.89890285 -14.09765625 57.66015625 C-13.06892966 58.63715463 -12.04286015 59.61695878 -11.01953125 60.59960938 C-7.11986009 64.31197716 -3.22212302 67.94434165 1.15234375 71.09765625 C4.80375731 69.57206565 7.05352487 67.37284716 9.77734375 64.53515625 C13.95789931 60.19487847 13.95789931 60.19487847 16.15234375 59.09765625 C16.15234375 58.43765625 16.15234375 57.77765625 16.15234375 57.09765625 C16.81234375 57.09765625 17.47234375 57.09765625 18.15234375 57.09765625 C18.15234375 56.43765625 18.15234375 55.77765625 18.15234375 55.09765625 C18.735 54.83984375 19.31765625 54.58203125 19.91796875 54.31640625 C23.95864146 52.11240295 26.76521847 49.00916859 29.15234375 45.09765625 C30.00826353 41.57233666 30.02539029 38.62036852 29.15234375 35.09765625 C27.04846611 32.24372147 27.04846611 32.24372147 24.15234375 30.09765625 C23.27846333 29.03016161 22.42420388 27.94631679 21.58984375 26.84765625 C19.11939672 24.06048524 18.57581493 23.70562999 15.15234375 23.09765625 C14.81434683 27.11811168 14.48278256 31.13907313 14.15234375 35.16015625 C14.00925781 36.86075195 14.00925781 36.86075195 13.86328125 38.59570312 C13.41276815 44.1144886 13.02375103 49.56013214 13.15234375 55.09765625 C12.49234375 54.76765625 11.83234375 54.43765625 11.15234375 54.09765625 C10.82234375 43.86765625 10.49234375 33.63765625 10.15234375 23.09765625 C8.50234375 23.09765625 6.85234375 23.09765625 5.15234375 23.09765625 C5.10223145 24.20802246 5.05211914 25.31838867 5.00048828 26.46240234 C4.81242879 30.57405376 4.61196783 34.68502225 4.40771484 38.79589844 C4.32098308 40.57666065 4.23763514 42.35759097 4.15771484 44.13867188 C4.04238651 46.69582841 3.91498134 49.25213738 3.78515625 51.80859375 C3.73501877 53.00710464 3.73501877 53.00710464 3.68386841 54.22982788 C3.38008716 59.86991284 3.38008716 59.86991284 1.15234375 62.09765625 C0.17329785 54.21633679 -0.17639936 46.38202046 -0.453125 38.44921875 C-0.65219501 33.25966946 -0.98661178 28.22087087 -1.84765625 23.09765625 C-3.49765625 23.42765625 -5.14765625 23.75765625 -6.84765625 24.09765625 C-6.84765625 34.32765625 -6.84765625 44.55765625 -6.84765625 55.09765625 C-7.50765625 54.76765625 -8.16765625 54.43765625 -8.84765625 54.09765625 C-9.25830078 51.13842773 -9.25830078 51.13842773 -9.48046875 47.21875 C-9.52203094 46.53208755 -9.56359314 45.84542511 -9.60641479 45.13795471 C-9.7375204 42.93744107 -9.85522261 40.73643782 -9.97265625 38.53515625 C-10.05901633 37.04617269 -10.14624458 35.5572392 -10.234375 34.06835938 C-10.44889163 30.41198665 -10.65139151 26.75505917 -10.84765625 23.09765625 C-14.00292351 22.75934361 -14.00292351 22.75934361 -16.16015625 25.22265625 Z " fill="#CBBA95" transform="translate(48.84765625,10.90234375)"/>
<path d="M0 0 C2.05078125 0.03255208 4.1015625 0.06510417 6.15234375 0.09765625 C6.83984375 1.84765625 6.83984375 1.84765625 7.15234375 4.09765625 C5.71484375 6.34765625 5.71484375 6.34765625 4.15234375 8.09765625 C4.81234375 8.42765625 5.47234375 8.75765625 6.15234375 9.09765625 C6.15234375 12.06765625 6.15234375 15.03765625 6.15234375 18.09765625 C7.47234375 18.42765625 8.79234375 18.75765625 10.15234375 19.09765625 C8.50234375 19.09765625 6.85234375 19.09765625 5.15234375 19.09765625 C5.15234375 16.12765625 5.15234375 13.15765625 5.15234375 10.09765625 C2.84234375 10.09765625 0.53234375 10.09765625 -1.84765625 10.09765625 C-1.84765625 9.10765625 -1.84765625 8.11765625 -1.84765625 7.09765625 C-2.03328125 6.06640625 -2.21890625 5.03515625 -2.41015625 3.97265625 C-2.55453125 3.02390625 -2.69890625 2.07515625 -2.84765625 1.09765625 C-1.84765625 0.09765625 -1.84765625 0.09765625 0 0 Z " fill="#D6C9AA" transform="translate(48.84765625,10.90234375)"/>
<path d="M0 0 C2.4375 0.75 2.4375 0.75 5 2 C5.9375 3.875 5.9375 3.875 6 6 C5.0625 8.25 5.0625 8.25 4 10 C1.42432563 8.71216281 0.44901169 7.48402004 -1 5 C-0.6875 2.25 -0.6875 2.25 0 0 Z " fill="#D5C8A9" transform="translate(60,14)"/>
<path d="M0 0 C0.78375 0.04125 1.5675 0.0825 2.375 0.125 C2.6875 2.4375 2.6875 2.4375 2.375 5.125 C-0.125 6.9375 -0.125 6.9375 -2.625 8.125 C-3.285 6.145 -3.945 4.165 -4.625 2.125 C-2.625 0.125 -2.625 0.125 0 0 Z " fill="#CDBC98" transform="translate(39.625,14.875)"/>
<path d="M0 0 C0.78375 0.04125 1.5675 0.0825 2.375 0.125 C2.375 1.775 2.375 3.425 2.375 5.125 C2.045 3.805 1.715 2.485 1.375 1.125 C0.385 1.125 -0.605 1.125 -1.625 1.125 C-1.955 2.775 -2.285 4.425 -2.625 6.125 C-3.285 4.805 -3.945 3.485 -4.625 2.125 C-2.625 0.125 -2.625 0.125 0 0 Z " fill="#DCD0B5" transform="translate(39.625,14.875)"/>
</svg>
