<?xml version="1.0" encoding="UTF-8"?>
<svg version="1.1" xmlns="http://www.w3.org/2000/svg" width="100" height="100">
<path d="M0 0 C0.11161052 3.51573124 0.12408407 5.72267044 -1 9 C-3.22265625 11.25 -3.22265625 11.25 -5.9375 13.4375 C-10.46280262 17.15888067 -12.45345458 19.71140943 -13.08203125 25.578125 C-12.92154029 30.31642967 -11.79635512 34.03767729 -8.5625 37.5703125 C-3.96180507 41.59592056 -0.15543237 42.30620636 5.72265625 42.2109375 C10.67574649 41.7521607 13.36334131 39.68107674 16.6875 36.125 C18.65242408 33.46969719 20.31415378 30.83222165 22 28 C23.92795479 25.2784807 25.87125565 22.56851489 28 20 C28.33 20 28.66 20 29 20 C29.22429687 20.89976563 29.44859375 21.79953125 29.6796875 22.7265625 C31.22836064 26.56617224 32.83337973 27.92738493 36.125 30.375 C37.03507812 31.06335938 37.94515625 31.75171875 38.8828125 32.4609375 C39.93082031 33.22277344 39.93082031 33.22277344 41 34 C40.67 34.99 40.34 35.98 40 37 C37.63671875 37.94921875 37.63671875 37.94921875 34.6875 38.6875 C33.72199219 38.93886719 32.75648437 39.19023438 31.76171875 39.44921875 C29 40 29 40 25 40 C25.433125 40.98742187 25.86625 41.97484375 26.3125 42.9921875 C26.87519045 44.28637554 27.43768005 45.58065093 28 46.875 C28.28617188 47.52597656 28.57234375 48.17695312 28.8671875 48.84765625 C31 53.7734375 31 53.7734375 31 56 C26.14163346 55.24987518 22.48646723 53.28350995 18.20703125 50.9609375 C17.47871094 50.64382812 16.75039062 50.32671875 16 50 C13.82961523 50.79299706 13.82961523 50.79299706 13.3671875 52.84765625 C13.20476563 53.57855469 13.04234375 54.30945313 12.875 55.0625 C12.70742188 55.79597656 12.53984375 56.52945313 12.3671875 57.28515625 C12.18542969 58.13400391 12.18542969 58.13400391 12 59 C11.319375 58.175 10.63875 57.35 9.9375 56.5 C7.17414571 53.72039275 7.17414571 53.72039275 3.4375 53.375 C-0.16603963 53.68716639 -0.16603963 53.68716639 -2.4375 56.5 C-2.953125 57.325 -3.46875 58.15 -4 59 C-5 58 -5 58 -5.0625 54.4375 C-5.041875 53.303125 -5.02125 52.16875 -5 51 C-8.24912999 49.96430283 -9.63896219 49.84469881 -12.82421875 51.21484375 C-13.76910156 51.78332031 -14.71398437 52.35179687 -15.6875 52.9375 C-20.8428246 56 -20.8428246 56 -23 56 C-22.39363767 50.23955788 -20.24341721 45.27985631 -18 40 C-18.97839844 39.81824219 -18.97839844 39.81824219 -19.9765625 39.6328125 C-24.78646342 38.71056011 -29.39025465 37.69832723 -34 36 C-32.54380689 32.35160313 -30.74339861 30.94492928 -27.5 28.8125 C-24.11599041 26.28928777 -22.49518935 24.8312473 -21.8125 20.625 C-21.70679688 19.86832031 -21.60109375 19.11164062 -21.4921875 18.33203125 C-20.12678935 11.8626448 -15.66780479 7.15351764 -10.375 3.5 C-6.98672647 1.36003777 -4.04882452 0 0 0 Z " fill="#CBBA95" transform="translate(48,33)"/>
<path d="M0 0 C1.7074998 1.28062485 3.37373596 2.61767557 5 4 C5 4.66 5 5.32 5 6 C9.83062066 4.90627457 12.32190529 4.22857059 15 0 C15.66 0 16.32 0 17 0 C17.495 3.465 17.495 3.465 18 7 C20.95106435 8.25348607 21.97406463 8.01044806 25.015625 6.78515625 C26.08296875 6.21667969 27.1503125 5.64820313 28.25 5.0625 C29.32765625 4.49660156 30.4053125 3.93070313 31.515625 3.34765625 C32.33546875 2.90292969 33.1553125 2.45820313 34 2 C35.81307736 7.43923208 32.07106943 12.89809726 30 18 C35.28 19.32 40.56 20.64 46 22 C43.95488676 26.09022648 43.1191559 26.8080225 39.5 29.1875 C36.11599041 31.71071223 34.49518935 33.1687527 33.8125 37.375 C33.70679688 38.13167969 33.60109375 38.88835938 33.4921875 39.66796875 C32.14115592 46.06928504 27.70382227 50.82310028 22.5 54.5 C19.04430278 56.61668764 16.11360676 57.78904581 12 58 C11.81877961 54.80327227 11.98773335 52.05147048 13 49 C15.13142057 46.96604001 17.40676025 45.41555104 19.828125 43.7421875 C23.19332351 41.04276568 24.37983859 38.21226518 25 34 C25.22158719 28.39700955 23.66553646 24.24430537 20 20 C15.35287732 16.537438 11.93309528 15.3785213 6.13671875 15.68359375 C1.27371962 16.40370879 -1.37748925 18.33405827 -4.6875 21.875 C-6.65242408 24.53030281 -8.31415378 27.16777835 -10 30 C-11.92795479 32.7215193 -13.87125565 35.43148511 -16 38 C-16.33 38 -16.66 38 -17 38 C-17.22429688 37.09765625 -17.44859375 36.1953125 -17.6796875 35.265625 C-19.23087023 31.42897187 -20.80640146 30.15149296 -24.125 27.75 C-25.78018896 26.54025849 -27.41405207 25.29918981 -29 24 C-29 23.34 -29 22.68 -29 22 C-26.89748139 21.32815382 -24.79292237 20.66269032 -22.6875 20 C-21.51574219 19.62875 -20.34398437 19.2575 -19.13671875 18.875 C-16 18 -16 18 -13 18 C-13.55880859 16.77023438 -13.55880859 16.77023438 -14.12890625 15.515625 C-14.60199219 14.43796875 -15.07507812 13.3603125 -15.5625 12.25 C-16.03816406 11.18265625 -16.51382812 10.1153125 -17.00390625 9.015625 C-17.9946154 6.01630163 -18.16161779 4.86578759 -17 2 C-16.18015625 2.433125 -15.3603125 2.86625 -14.515625 3.3125 C-13.43796875 3.869375 -12.3603125 4.42625 -11.25 5 C-10.18265625 5.556875 -9.1153125 6.11375 -8.015625 6.6875 C-4.93686532 8.26604902 -4.93686532 8.26604902 -1 8 C-0.67 5.36 -0.34 2.72 0 0 Z " fill="#CBBA95" transform="translate(43,9)"/>
<path d="M0 0 C2.12052571 3.18078856 2.76611146 5.48733876 3.625 9.1875 C3.88539062 10.27417969 4.14578125 11.36085938 4.4140625 12.48046875 C5.61406001 19.6884538 4.90410384 25.55259409 3 32.5 C2.80921875 33.22703125 2.6184375 33.9540625 2.421875 34.703125 C1.95662755 36.47106531 1.47956407 38.23588933 1 40 C-1.12052571 36.81921144 -1.76611146 34.51266124 -2.625 30.8125 C-2.88539062 29.72582031 -3.14578125 28.63914062 -3.4140625 27.51953125 C-4.61406001 20.3115462 -3.90410384 14.44740591 -2 7.5 C-1.80921875 6.77296875 -1.6184375 6.0459375 -1.421875 5.296875 C-0.95662755 3.52893469 -0.47956407 1.76411067 0 0 Z " fill="#CDBC98" transform="translate(51,30)"/>
<path d="M0 0 C8.43497758 4.34529148 8.43497758 4.34529148 9.8203125 8.40234375 C10.03912823 10.63638174 10.12444209 12.7600423 10 15 C5.66388269 14.49580031 2.40585354 13.82199293 -1 11 C-2.44711899 6.56216844 -1.81500778 4.16674938 0 0 Z " fill="#D1C19E" transform="translate(38,52)"/>
<path d="M0 0 C4.00881921 0.80176384 7.1073212 1.43391101 10.5625 3.625 C12.77754469 7.28463906 11.82530063 9.87349687 11 14 C7.19694055 14 5.5350562 12.90750936 2.51953125 10.7109375 C-0.21379048 7.63331561 -0.0604168 3.9616158 0 0 Z " fill="#D0C09D" transform="translate(55,33)"/>
<path d="M0 0 C0.66 0.99 1.32 1.98 2 3 C2.598125 2.649375 3.19625 2.29875 3.8125 1.9375 C6 1 6 1 9 2 C7.71086513 2.67154933 6.41859796 3.33708859 5.125 4 C4.40570312 4.37125 3.68640625 4.7425 2.9453125 5.125 C1 6 1 6 -1 6 C-0.67 4.02 -0.34 2.04 0 0 Z " fill="#E9DFCA" transform="translate(26,83)"/>
<path d="M0 0 C-1.5830577 4.2742558 -4.50568404 6.26531794 -8 9 C-6.68994234 5.06982701 -4.75047804 0 0 0 Z " fill="#DACDB1" transform="translate(37,38)"/>
<path d="M0 0 C0.66 0 1.32 0 2 0 C1.79375 0.61875 1.5875 1.2375 1.375 1.875 C1.25125 2.57625 1.1275 3.2775 1 4 C1.66 4.66 2.32 5.32 3 6 C0.03 5.505 0.03 5.505 -3 5 C-1.125 1.125 -1.125 1.125 0 0 Z " fill="#DED1B6" transform="translate(17,64)"/>
<path d="M0 0 C0.68359375 1.796875 0.68359375 1.796875 1 4 C-0.21484375 5.703125 -0.21484375 5.703125 -1.9375 7.25 C-2.50339844 7.77078125 -3.06929688 8.2915625 -3.65234375 8.828125 C-4.09707031 9.21484375 -4.54179688 9.6015625 -5 10 C-5.66 9.67 -6.32 9.34 -7 9 C-6.57847656 8.51789062 -6.15695313 8.03578125 -5.72265625 7.5390625 C-5.17480469 6.90742187 -4.62695312 6.27578125 -4.0625 5.625 C-3.51722656 4.99851562 -2.97195312 4.37203125 -2.41015625 3.7265625 C-0.93041376 2.04367666 -0.93041376 2.04367666 0 0 Z " fill="#D6C7AA" transform="translate(76,53)"/>
</svg>
