<?xml version="1.0" encoding="UTF-8"?>
<svg version="1.1" xmlns="http://www.w3.org/2000/svg" width="100" height="100">
<path d="M0 0 C-1.65 2.64 -3.3 5.28 -5 8 C-4.34 8 -3.68 8 -3 8 C-3.03480469 8.67546875 -3.06960937 9.3509375 -3.10546875 10.046875 C-3.13253906 10.93890625 -3.15960938 11.8309375 -3.1875 12.75 C-3.22230469 13.63171875 -3.25710937 14.5134375 -3.29296875 15.421875 C-2.94262147 18.50493103 -2.14001467 19.78515964 0 22 C0.99 22.33 1.98 22.66 3 23 C2.731875 22.113125 2.46375 21.22625 2.1875 20.3125 C2 17 2 17 4.4375 14.125 C5.283125 13.42375 6.12875 12.7225 7 12 C11.06153846 17.29230769 11.06153846 17.29230769 10.75 20.875 C10.5025 21.57625 10.255 22.2775 10 23 C12.76646035 21.61676983 14.64309576 20.53535636 16.375 17.9375 C17.30338998 13.57406711 17.05016604 9.33457797 16 5 C15.03495237 3.64115459 14.03944913 2.3028136 13 1 C13 0.34 13 -0.32 13 -1 C18.15016641 0.27458847 22.63680252 1.43129363 26.8125 4.8125 C27.864375 5.534375 28.91625 6.25625 30 7 C32.6807393 6.49439113 32.6807393 6.49439113 35 5 C36.65919896 4.63128912 38.3247643 4.28718326 40 4 C39.79503906 4.51046875 39.59007813 5.0209375 39.37890625 5.546875 C36.99030189 11.99267815 36.33564879 18.1597091 36 25 C36.99 23.35 37.98 21.7 39 20 C42.92256422 25.88384633 43.6244742 34.13573893 42.5 41.0625 C39.65420827 52.01879815 34.32152227 60.48065314 25 67 C22.30811619 68.3546254 19.91867132 69.18925797 17 70 C18.11678266 67.16509016 19.28163444 64.39166961 20.5625 61.625 C22.13601429 58.07690368 22.13601429 58.07690368 22.5 54.375 C23.0198393 50.86608472 23.99155776 48.88167799 26 46 C25.67 45.67 25.34 45.34 25 45 C23.02 46.32 21.04 47.64 19 49 C18.236875 48.360625 17.47375 47.72125 16.6875 47.0625 C14.11753287 44.85767219 14.11753287 44.85767219 11 44 C11 55.55 11 67.1 11 79 C10.34 79 9.68 79 9 79 C9 80.32 9 81.64 9 83 C6.625 82.75 6.625 82.75 4 82 C2.06045991 79.05492472 1.7600773 76.71397081 1.8046875 73.234375 C1.81113281 72.34492187 1.81757812 71.45546875 1.82421875 70.5390625 C1.84097656 69.61867188 1.85773437 68.69828125 1.875 67.75 C1.88402344 66.81414062 1.89304687 65.87828125 1.90234375 64.9140625 C1.92586364 62.60911343 1.95873147 60.3046884 2 58 C2.66 58 3.32 58 4 58 C4 53.05 4 48.1 4 43 C2.68 43 1.36 43 0 43 C1.06072155 39.91790343 1.91792446 39.04811722 4.78515625 37.3671875 C5.86667969 36.87476563 6.94820312 36.38234375 8.0625 35.875 C12.28808694 34.25208987 12.28808694 34.25208987 15 31 C11.32483258 32.64842068 7.66140017 34.32125526 4 36 C3.21753906 36.34546875 2.43507812 36.6909375 1.62890625 37.046875 C-3.3984813 39.36574563 -6.46173229 41.92346458 -9 47 C-9.73526894 54.834833 -9.10631835 60.28056998 -5 67 C-4.505 67.99 -4.505 67.99 -4 69 C-10.44790362 68.83466914 -14.3592244 65.04852424 -19 61 C-19.87978516 60.28070313 -19.87978516 60.28070313 -20.77734375 59.546875 C-22 58 -22 58 -22.1796875 55.9140625 C-21.56311277 51.28184722 -20.85889216 47.85328943 -18 44 C-18.9075 44.680625 -19.815 45.36125 -20.75 46.0625 C-24 48 -24 48 -26.203125 47.62109375 C-26.79609375 47.41613281 -27.3890625 47.21117187 -28 47 C-31.01436574 34.39447055 -31.01436574 34.39447055 -27.66015625 28.7421875 C-26.15617235 26.45495525 -24.59651842 24.22326836 -23 22 C-22.34 21.01 -21.68 20.02 -21 19 C-22.98 20.32 -24.96 21.64 -27 23 C-26.56535919 16.04574712 -21.06586362 10.8021145 -16.25 6.25 C-12.41022606 3.01806672 -5.02577069 -2.51288534 0 0 Z " fill="#C8B68F" transform="translate(42,10)"/>
<path d="M0 0 C0.99 0.66 1.98 1.32 3 2 C2.67 2.66 2.34 3.32 2 4 C1.01 4.33 0.02 4.66 -1 5 C-1.33 7.31 -1.66 9.62 -2 12 C-3.32 11.67 -4.64 11.34 -6 11 C-5.01 11 -4.02 11 -3 11 C-3.2475 10.113125 -3.495 9.22625 -3.75 8.3125 C-4 5 -4 5 -2.0625 2.125 C-1.0415625 1.073125 -1.0415625 1.073125 0 0 Z " fill="#D7C8AC" transform="translate(48,22)"/>
<path d="M0 0 C-1.32 1.32 -2.64 2.64 -4 4 C-4 3.34 -4 2.68 -4 2 C-5.98 2.33 -7.96 2.66 -10 3 C-3.94594595 -1.97297297 -3.94594595 -1.97297297 0 0 Z " fill="#DED1B7" transform="translate(42,10)"/>
<path d="M0 0 C3.3 0.99 6.6 1.98 10 3 C7 4 7 4 4 4 C3.67 4.66 3.34 5.32 3 6 C0 2.25 0 2.25 0 0 Z " fill="#E0D4BA" transform="translate(55,9)"/>
<path d="M0 0 C0.66 0.66 1.32 1.32 2 2 C2.99 2.33 3.98 2.66 5 3 C2.36 3.99 -0.28 4.98 -3 6 C-1.125 1.125 -1.125 1.125 0 0 Z " fill="#E5DAC3" transform="translate(62,74)"/>
</svg>
