<?xml version="1.0" encoding="UTF-8"?>
<svg version="1.1" xmlns="http://www.w3.org/2000/svg" width="100" height="101">
<path d="M0 0 C2.67601412 4.01402118 3.93073089 8.32263274 5.48828125 12.87109375 C7.20325186 16.42068407 8.62744858 17.98445152 12 20 C14.47359742 20.30691728 14.47359742 20.30691728 16.9375 19.8125 C17.79988281 19.68617187 18.66226563 19.55984375 19.55078125 19.4296875 C20.35902344 19.28789062 21.16726562 19.14609375 22 19 C23.19625 18.814375 24.3925 18.62875 25.625 18.4375 C26.40875 18.293125 27.1925 18.14875 28 18 C27.67 19.0725 27.34 20.145 27 21.25 C25.66052788 26.68553904 25.06647518 32.46214089 26 38 C28.82633086 41.4934905 31.93385101 43.15175046 36 45 C34.61125792 47.77748416 32.95386912 47.98625558 30.125 49.1875 C26.53774945 50.95297994 25.18952004 51.71284842 22.9375 55.125 C21.74101501 60.07047131 21.26605577 64.92659167 21 70 C14.36842105 63.55263158 14.36842105 63.55263158 12 60 C12 55.33757082 16.05137049 50.56730092 18.4375 46.625 C19.21742062 42.98537043 18.03446634 40.58048607 16.73828125 37.16015625 C15.89363021 34.68876988 15.74880341 32.59569813 16 30 C15.175 29.9175 14.35 29.835 13.5 29.75 C7.94242901 28.55909193 3.2065471 26.80982065 0 22 C-0.309375 22.5775 -0.61875 23.155 -0.9375 23.75 C-3.97879412 27.06777541 -7.77503993 28.56106432 -12 30 C-12.99 30 -13.98 30 -15 30 C-15.103125 30.804375 -15.20625 31.60875 -15.3125 32.4375 C-16 36 -16 36 -16.9453125 38.05078125 C-18.03521511 40.466589 -18.73828279 42.35327914 -19 45 C-17.18877935 49.62059574 -14.50103721 53.49896279 -11 57 C-11.3095937 60.59430732 -13.09447767 62.61957992 -15.4375 65.25 C-16.05496094 65.95640625 -16.67242187 66.6628125 -17.30859375 67.390625 C-19 69 -19 69 -21 69 C-21.03738281 68.19175781 -21.07476562 67.38351563 -21.11328125 66.55078125 C-21.17902344 65.48214844 -21.24476562 64.41351563 -21.3125 63.3125 C-21.37050781 62.25675781 -21.42851562 61.20101562 -21.48828125 60.11328125 C-22.28938111 55.23941414 -24.00371365 52.74191536 -27.9375 49.8125 C-30.26413214 48.43551363 -32.54757385 47.13188899 -35 46 C-33.25040869 44.06624118 -31.7091608 42.82975266 -29.4375 41.5 C-26.75281489 40.08195341 -26.75281489 40.08195341 -25 37 C-24.10808841 30.58610638 -25.54455076 24.22464453 -27 18 C-26.43152344 18.144375 -25.86304688 18.28875 -25.27734375 18.4375 C-20.46677341 19.59396432 -15.96098889 20.66782543 -11 20 C-6.46680618 16.29682758 -4.62319535 12.52470749 -2.6875 7.1875 C-2.42388672 6.49462891 -2.16027344 5.80175781 -1.88867188 5.08789062 C-1.2470873 3.39644038 -0.62182938 1.69881222 0 0 Z " fill="#CAB892" transform="translate(49,9)"/>
<path d="M0 0 C1.99097846 2.98646769 2.94124926 5.59687262 4 9 C6.31 9 8.62 9 11 9 C10.67 11.64 10.34 14.28 10 17 C11.65 17.33 13.3 17.66 15 18 C14.67 18.99 14.34 19.98 14 21 C11.9375 21.6875 11.9375 21.6875 10 22 C10 24.64 10 27.28 10 30 C8.906875 29.9175 7.81375 29.835 6.6875 29.75 C2.96557142 29.58896039 2.96557142 29.58896039 1.0625 32 C0.711875 32.66 0.36125 33.32 0 34 C-0.37125 33.34 -0.7425 32.68 -1.125 32 C-2.90894778 29.64696955 -2.90894778 29.64696955 -6.1875 29.75 C-7.5796875 29.87375 -7.5796875 29.87375 -9 30 C-9.061875 28.906875 -9.12375 27.81375 -9.1875 26.6875 C-9.6132233 22.85667284 -9.6132233 22.85667284 -12.5625 21.0625 C-13.7690625 20.5365625 -13.7690625 20.5365625 -15 20 C-13.36587557 18.29159719 -12.13093906 17.06546953 -10 16 C-10 13.69 -10 11.38 -10 9 C-8.02 9 -6.04 9 -4 9 C-2.68 6.03 -1.36 3.06 0 0 Z " fill="#C8B68F" transform="translate(49,35)"/>
<path d="M0 0 C2.88611196 4.9476205 4 10.33165837 4 16 C-1.22727273 21 -1.22727273 21 -4 21 C-4.08165496 18.79229195 -4.13948488 16.58369575 -4.1875 14.375 C-4.23970703 12.53035156 -4.23970703 12.53035156 -4.29296875 10.6484375 C-3.96573355 6.57326854 -2.97849003 2.97849003 0 0 Z " fill="#CFBE9B" transform="translate(55,70)"/>
<path d="M0 0 C3.13140401 2.99525601 3.97836137 4.1811942 4.09765625 8.6953125 C4.09100493 10.17190652 4.07907574 11.64848404 4.0625 13.125 C4.05798828 13.87910156 4.05347656 14.63320312 4.04882812 15.41015625 C4.03703499 17.27347127 4.01909942 19.13674555 4 21 C1.37098712 19.47793991 -0.84365964 18.15634036 -3 16 C-3.11896923 10.48775908 -2.01915132 5.11518334 0 0 Z " fill="#CCBB96" transform="translate(43,70)"/>
<path d="M0 0 C1.50825077 3.01650153 0.56437033 5.18294638 -0.125 8.4375 C-0.35445312 9.59121094 -0.58390625 10.74492188 -0.8203125 11.93359375 C-2 15 -2 15 -4.4921875 16.91015625 C-7 18 -7 18 -9 18 C-9.52919967 14.82480201 -9.75232322 13.07813292 -9 10 C-6.32919586 6.3243904 -3.2599714 3.15648024 0 0 Z " fill="#CCBA95" transform="translate(41,67)"/>
<path d="M0 0 C2 0 2 0 4.19921875 2.16015625 C5.02035156 3.11792969 5.84148438 4.07570313 6.6875 5.0625 C7.51636719 6.00222656 8.34523438 6.94195312 9.19921875 7.91015625 C11.45244872 11.77632741 11.04758912 13.74051326 10 18 C7.1484375 17.5078125 7.1484375 17.5078125 4 16 C2.86769475 13.13593377 2.18447492 10.8468897 1.625 7.875 C1.46128906 7.12089844 1.29757813 6.36679688 1.12890625 5.58984375 C0.7290061 3.73148422 0.3613448 1.86623959 0 0 Z " fill="#D0BF9C" transform="translate(56,67)"/>
<path d="M0 0 C1.33332095 2.6666419 0.67102033 4.16680303 0 7 C-0.99 7 -1.98 7 -3 7 C-4.65503095 8.0772721 -4.65503095 8.0772721 -6.1875 9.5 C-7.115625 10.325 -8.04375 11.15 -9 12 C-7.55575365 8.76138697 -5.74227753 6.38030837 -3.375 3.75 C-2.74335937 3.04359375 -2.11171875 2.3371875 -1.4609375 1.609375 C-0.97882812 1.07828125 -0.49671875 0.5471875 0 0 Z " fill="#D6C7A8" transform="translate(41,67)"/>
<path d="M0 0 C0 0.99 0 1.98 0 3 C-1 4 -2 5 -3 6 C-3 6.99 -3 7.98 -3 9 C-4.98 8.34 -6.96 7.68 -9 7 C-6.62997587 4.38049964 -4.04546021 2.76316117 -1 1 C-0.67 0.67 -0.34 0.34 0 0 Z " fill="#DACCAF" transform="translate(23,48)"/>
<path d="M0 0 C5.28 0.99 10.56 1.98 16 3 C16 3.33 16 3.66 16 4 C6.58997722 4.3690205 6.58997722 4.3690205 2 2 C1.67 3.32 1.34 4.64 1 6 C0.67 4.02 0.34 2.04 0 0 Z " fill="#DDCFB4" transform="translate(22,27)"/>
<path d="M0 0 C0 0.99 0 1.98 0 3 C0.3062434 4.33981486 0.63451555 5.67511887 1 7 C-0.98 6.01 -2.96 5.02 -5 4 C-3.36587557 2.29159719 -2.13093906 1.06546953 0 0 Z " fill="#DDD0B4" transform="translate(39,51)"/>
<path d="M0 0 C0 0.99 0 1.98 0 3 C-1.65 3 -3.3 3 -5 3 C-5.33 4.32 -5.66 5.64 -6 7 C-6.33 5.02 -6.66 3.04 -7 1 C-5.5459375 1.0309375 -5.5459375 1.0309375 -4.0625 1.0625 C-1.12534105 1.35618499 -1.12534105 1.35618499 0 0 Z " fill="#DCCEB2" transform="translate(46,43)"/>
</svg>
