<?xml version="1.0" encoding="UTF-8"?>
<svg version="1.1" xmlns="http://www.w3.org/2000/svg" width="99" height="100">
<path d="M0 0 C12.16890036 9.1930994 12.16890036 9.1930994 13.43359375 16.5078125 C13.44610082 24.88755186 11.65294339 32.06078103 6.9375 39.0625 C3.86288804 42.13711196 1.53085756 43.40434069 -2.75 43.75 C-6.31550087 43.70829824 -7.55924396 43.43110445 -10.140625 40.90625 C-11.94106042 38.3341994 -13.52297261 35.76942636 -15 33 C-15.39832031 32.28714844 -15.79664062 31.57429688 -16.20703125 30.83984375 C-17.31253719 28.27485214 -16.78008999 26.62393907 -16 24 C-15.67 23.67 -15.34 23.34 -15 23 C-13.824375 23.020625 -12.64875 23.04125 -11.4375 23.0625 C-8.17949029 22.73376389 -7.13142574 22.13027891 -4.76171875 19.78125 C-2.76169658 17.23643202 -0.87135056 14.64009786 1 12 C1.66 11.34 2.32 10.68 3 10 C-2.17012256 5.89955797 -6.57031038 5.41946584 -13 6 C-16.52256618 6.84219134 -16.52256618 6.84219134 -19 9 C-20.15483439 12.49739918 -20.15483439 12.49739918 -20 16 C-19.34 16.66 -18.68 17.32 -18 18 C-17.62488281 17.51789062 -17.24976562 17.03578125 -16.86328125 16.5390625 C-11.55262806 9.98435201 -11.55262806 9.98435201 -7 9 C-6.01 9.33 -5.02 9.66 -4 10 C-4.66386719 10.46148437 -5.32773437 10.92296875 -6.01171875 11.3984375 C-12.47826582 16.17518614 -16.08129575 20.50353855 -19 28 C-22.65433265 27.18174726 -25.6796203 25.73565302 -29 24 C-29 23.34 -29 22.68 -29 22 C-26.69 22.33 -24.38 22.66 -22 23 C-23.77789851 19.57426747 -23.77789851 19.57426747 -27.875 19.1875 C-31.15014529 18.8778499 -33.23184713 19.03922505 -36 21 C-34.40764294 24.9085128 -32.38073474 27.46444894 -29 30 C-26.36646556 30.18931158 -23.92867082 30.06829123 -21.3046875 29.78515625 C-19 30 -19 30 -17.1875 31.8046875 C-15.50797324 34.90960211 -16.00945559 36.67460091 -17 40 C-18.67129126 42.21446092 -19.5512138 42.91556734 -22.3046875 43.43359375 C-26.2481795 43.4395869 -29.18327415 43.40836292 -32.75 41.625 C-38.54990577 34.85844327 -43.83034095 26.34705453 -43.56640625 17.14453125 C-41.69751675 10.06852895 -34.15588147 4.87862556 -28.21875 1.21875 C-19.07991415 -3.80117392 -9.51555027 -5.0675468 0 0 Z " fill="#DCC8A1" transform="translate(64,46)"/>
<path d="M0 0 C0.33 0 0.66 0 1 0 C1.19412181 1.47831221 1.38012131 2.95769316 1.5625 4.4375 C1.66691406 5.26121094 1.77132812 6.08492187 1.87890625 6.93359375 C1.91886719 7.61550781 1.95882812 8.29742187 2 9 C1.67 9.33 1.34 9.66 1 10 C2.175625 10.37125 2.175625 10.37125 3.375 10.75 C6.4459817 12.21237224 6.79339053 12.91766127 8 16 C8.7352363 20.70209259 8.38619858 24.19899553 6.3125 28.5 C3.7994786 31.21677989 2.63535761 31.79803569 -1 32 C-4.39543881 28.49503091 -5.70361533 25.75217375 -6.1171875 20.99609375 C-5.93498994 17.89266204 -4.56527505 15.62966208 -3 13 C-3 11.20724355 -3.08805576 9.41499624 -3.1875 7.625 C-2.99289692 3.86267374 -2.61079801 2.61079801 0 0 Z " fill="#DBC7A0" transform="translate(35,12)"/>
<path d="M0 0 C0.33 0 0.66 0 1 0 C1.19406478 1.64507218 1.38007935 3.29109594 1.5625 4.9375 C1.66691406 5.85402344 1.77132812 6.77054688 1.87890625 7.71484375 C1.91886719 8.46894531 1.95882812 9.22304688 2 10 C1.67 10.33 1.34 10.66 1 11 C1.804375 11.5775 2.60875 12.155 3.4375 12.75 C7.10649185 15.97155382 6.89893866 17.63567188 7.25 22.375 C6.97227215 26.40205387 6.2909794 28.68202984 4 32 C1.3125 32.875 1.3125 32.875 -1 33 C-4.83458978 28.44642464 -5.49879759 25.25032355 -5.27734375 19.32421875 C-4.95700453 16.63968583 -4.03522662 14.48454388 -3 12 C-3.185625 11.01 -3.37125 10.02 -3.5625 9 C-4.10871376 5.25453421 -3.21096681 3.97630147 -1 1 C-0.67 0.67 -0.34 0.34 0 0 Z " fill="#DCC8A1" transform="translate(50,7)"/>
<path d="M0 0 C0.78375 0.04125 1.5675 0.0825 2.375 0.125 C4.79698482 5.77629792 6.09382477 9.96364484 5.375 16.125 C3.6875 18.6875 3.6875 18.6875 1.375 20.125 C-1.25 20.0625 -1.25 20.0625 -3.625 19.125 C-5.99952112 15.56321832 -6.34136443 13.37953352 -6.625 9.125 C-4.7283123 0.22515773 -4.7283123 0.22515773 0 0 Z " fill="#DCC9A3" transform="translate(64.625,22.875)"/>
<path d="M0 0 C2.5 0.625 2.5 0.625 4.4375 2.5625 C5.93435554 6.87696598 5.18426241 10.42221435 3.5 14.625 C2.1640625 16.3984375 2.1640625 16.3984375 0.5 17.625 C-0.82 17.625 -2.14 17.625 -3.5 17.625 C-5.98976468 13.89035299 -6.04895415 9.95659137 -5.5 5.625 C-4.1381829 2.18461997 -3.63232653 0.90808163 0 0 Z " fill="#DCC9A3" transform="translate(23.5,35.375)"/>
<path d="M0 0 C2.625 -0.1875 2.625 -0.1875 5 0 C7.52257467 4.16820277 9.04939183 6.96277153 8.8125 11.9375 C8 15 8 15 7 16 C4.6875 16.375 4.6875 16.375 2 16 C-0.4560359 13.87586085 -1.80233988 12.25428765 -2.31640625 8.9921875 C-2.42238936 5.16266435 -2.14887284 3.22330926 0 0 Z " fill="#DDCAA4" transform="translate(73,38)"/>
<path d="M0 0 C0.33 0 0.66 0 1 0 C1.19412181 1.47831221 1.38012131 2.95769316 1.5625 4.4375 C1.66691406 5.26121094 1.77132812 6.08492187 1.87890625 6.93359375 C1.91886719 7.61550781 1.95882812 8.29742187 2 9 C1.67 9.33 1.34 9.66 1 10 C2.32 10.66 3.64 11.32 5 12 C4.278125 12.2475 3.55625 12.495 2.8125 12.75 C-0.24713266 14.10983674 -2.4673738 15.82917754 -5 18 C-4.67 17.21625 -4.34 16.4325 -4 15.625 C-2.81186662 12.50614987 -3.00001524 10.99972573 -3.1875 7.625 C-2.99289692 3.86267374 -2.61079801 2.61079801 0 0 Z " fill="#E0CFAC" transform="translate(35,12)"/>
<path d="M0 0 C0.33 0 0.66 0 1 0 C1.19406478 1.64507218 1.38007935 3.29109594 1.5625 4.9375 C1.66691406 5.85402344 1.77132812 6.77054688 1.87890625 7.71484375 C1.91886719 8.46894531 1.95882812 9.22304688 2 10 C1.67 10.33 1.34 10.66 1 11 C1.66 11.66 2.32 12.32 3 13 C1.02 13.33 -0.96 13.66 -3 14 C-4.35151515 6.75096419 -4.35151515 6.75096419 -2.625 3.0625 C-1 1 -1 1 0 0 Z " fill="#E3D3B1" transform="translate(50,7)"/>
<path d="M0 0 C-0.68707031 0.54269531 -1.37414063 1.08539063 -2.08203125 1.64453125 C-2.98308594 2.35996094 -3.88414063 3.07539062 -4.8125 3.8125 C-5.70582031 4.52019531 -6.59914063 5.22789063 -7.51953125 5.95703125 C-9.47076911 7.56411377 -11.26274976 9.17040423 -13 11 C-13.33 10.01 -13.66 9.02 -14 8 C-11.8441502 4.36099037 -8.98772666 1.5512893 -5.3125 -0.5 C-3 -1 -3 -1 0 0 Z " fill="#E2D2B2" transform="translate(60,56)"/>
<path d="M0 0 C0.66 0.33 1.32 0.66 2 1 C1.07316406 1.85722656 0.14632812 2.71445312 -0.80859375 3.59765625 C-2.01901586 4.75177966 -3.22860802 5.90677395 -4.4375 7.0625 C-5.35499023 7.90458008 -5.35499023 7.90458008 -6.29101562 8.76367188 C-10.40861016 12.74477156 -11.83116094 15.23744948 -12 21 C-12.33 21 -12.66 21 -13 21 C-13.62677322 16.6909341 -13.86525968 14.29052112 -11.39453125 10.60546875 C-7.92009297 6.67472525 -4.27135888 3.07003919 0 0 Z " fill="#E3D3B3" transform="translate(34,48)"/>
<path d="M0 0 C2.5 2.25 2.5 2.25 5 5 C5 6.32 5 7.64 5 9 C3.35 8.67 1.7 8.34 0 8 C0 5.36 0 2.72 0 0 Z " fill="#E3D3B2" transform="translate(62,13)"/>
<path d="M0 0 C0.33 0 0.66 0 1 0 C1.33 2.31 1.66 4.62 2 7 C0.02 7.99 0.02 7.99 -2 9 C-2.6875 7.3125 -2.6875 7.3125 -3 5 C-1.625 2.25 -1.625 2.25 0 0 Z " fill="#E3D2B2" transform="translate(24,25)"/>
<path d="M0 0 C0.66 0 1.32 0 2 0 C4.1519437 3.22791555 4.20086443 4.28400809 4 8 C2.68 7.67 1.36 7.34 0 7 C0 4.69 0 2.38 0 0 Z " fill="#E6D7BA" transform="translate(74,29)"/>
<path d="M0 0 C2.64 0.33 5.28 0.66 8 1 C7.46375 1.226875 6.9275 1.45375 6.375 1.6875 C3.21499137 3.43382056 0.7323017 5.6402849 -2 8 C-1.67 7.236875 -1.34 6.47375 -1 5.6875 C0.17436686 3.00930865 0.17436686 3.00930865 0 0 Z " fill="#E6D7B9" transform="translate(32,22)"/>
<path d="M0 0 C-1.65 1.32 -3.3 2.64 -5 4 C-6.32 3.34 -7.64 2.68 -9 2 C-3.375 -1.125 -3.375 -1.125 0 0 Z " fill="#E8DAC0" transform="translate(60,56)"/>
<path d="M0 0 C5.75 0.75 5.75 0.75 8 3 C5.39417629 3.93065133 4.35801776 4.14917407 1.75 3.0625 C1.1725 2.711875 0.595 2.36125 0 2 C0 1.34 0 0.68 0 0 Z " fill="#EADCC4" transform="translate(35,68)"/>
</svg>
