<?xml version="1.0" encoding="UTF-8"?>
<svg version="1.1" xmlns="http://www.w3.org/2000/svg" width="100" height="100">
<path d="M0 0 C7.25409836 0.48360656 7.25409836 0.48360656 10.4375 2.6875 C12.42927911 5.63533308 12.93003779 7.43192741 13 11 C11.6875 14.5625 11.6875 14.5625 10 18 C9.32723284 19.6642135 8.65793165 21.32986582 8 23 C9.93109581 23.04289755 9.93109581 23.04289755 12 22 C13.03101947 19.68020619 14.02936517 17.34570085 15 15 C17.42659576 12.40605281 18.56518745 12.04348125 22.125 11.6875 C25 12 25 12 27 14 C26.34 14.845625 25.68 15.69125 25 16.5625 C22.71918218 20.48265563 22.49528568 22.54169018 23 27 C23.66 27.99 24.32 28.98 25 30 C26.32 30 27.64 30 29 30 C28.505 25.545 28.505 25.545 28 21 C32.44633599 22.39741988 35.0489709 24.39318665 38 28 C39.22121447 31.74505772 39.19464383 33.477535 37.8125 37.1875 C36.90349168 41.45284671 37.36778876 42.48697521 39 46.375 C40.86331615 51.0237512 41.48706467 54.05969098 40.01953125 58.8828125 C38.07652823 62.91770767 35.15835254 65.87865941 32 69 C31.319375 69.69351563 30.63875 70.38703125 29.9375 71.1015625 C28.58388073 72.47056381 27.21955603 73.8290788 25.84375 75.17578125 C24.30715541 76.69609836 22.83249637 78.27869446 21.375 79.875 C15.76496763 84.89450265 8.78683932 84.42459748 1.640625 84.3125 C-4.72822853 83.76581729 -8.2515616 81.87637291 -12.5625 77.25 C-13.375 76.16666667 -14.1875 75.08333333 -15 74 C-16.15675414 72.65805784 -17.32405176 71.32515457 -18.5 70 C-19.08910156 69.31035156 -19.67820312 68.62070313 -20.28515625 67.91015625 C-22.11161647 65.79779382 -22.11161647 65.79779382 -24.9375 63.4375 C-28.41245496 59.35527136 -27.16495975 53.64597164 -26.96875 48.6328125 C-26.99721181 45.32412762 -27.28181646 43.45268796 -28.625 40.5 C-30 37 -30 37 -29.4375 33.25 C-27.99731216 29.99392315 -26.7910357 28.18049664 -24 26 C-23.34 26 -22.68 26 -22 26 C-22.061875 27.093125 -22.12375 28.18625 -22.1875 29.3125 C-22.38541072 32.91902754 -22.38541072 32.91902754 -20.48828125 34.73046875 C-19.99714844 35.14941406 -19.50601562 35.56835938 -19 36 C-19.11859375 35.2265625 -19.2371875 34.453125 -19.359375 33.65625 C-20.08792167 27.76959288 -20.62430303 22.96411374 -17.5 17.74609375 C-13.24710077 12.79545325 -6.89695469 9.58890694 -1 7 C-0.34 7 0.32 7 1 7 C0.67 4.69 0.34 2.38 0 0 Z M-4.875 20.75 C-5.57367188 21.26046875 -6.27234375 21.7709375 -6.9921875 22.296875 C-9.07965097 24.06756386 -10.56108803 25.67182256 -12 28 C-12.2736088 32.17253427 -12.1252545 35.41547901 -11.25 39.5 C-10.94687255 43.74378431 -12.05475919 45.72984352 -14.1875 49.30078125 C-14.455625 49.86152344 -14.72375 50.42226563 -15 51 C-14.67 51.66 -14.34 52.32 -14 53 C-9.65048816 47.59230879 -9.65048816 47.59230879 -8 41 C-8.31595508 39.32995171 -8.65179959 37.66362417 -9 36 C-9.35231503 33.2541797 -9.51738359 30.73002406 -9 28 C-6.5 25 -6.5 25 -4 23 C-3.67128906 23.77923828 -3.67128906 23.77923828 -3.3359375 24.57421875 C-0.32654646 31.19243237 3.31652449 34.97746815 10.1875 37.625 C13.12899152 38.96357549 13.85868672 39.67605925 15.17578125 42.6953125 C15.92074392 45.45626419 16.53317229 48.17958261 17 51 C19.85778033 51.68493373 19.85778033 51.68493373 23 52 C23.99 51.34 24.98 50.68 26 50 C26 49.01 26 48.02 26 47 C26.66 47 27.32 47 28 47 C28.66 49.97 29.32 52.94 30 56 C30.33 56 30.66 56 31 56 C31.42670076 52.51527717 31.64789556 49.9813155 29.6640625 46.9765625 C28.16390788 45.25103253 26.63343216 43.59940232 25 42 C24.505 43.485 24.505 43.485 24 45 C23.3400321 46.66933058 22.67441131 48.3364521 22 50 C21.01 49.67 20.02 49.34 19 49 C18.4453125 47.07421875 18.4453125 47.07421875 18.125 44.6875 C17.47794421 41.38960274 17.20806015 40.2264184 14.875 37.6875 C12.57759752 36.33902463 10.34849055 35.23396586 7.9375 34.125 C3.8948207 32.15333411 1.92725727 30.17572409 0 26 C-0.29921147 23.23728073 -0.19262617 20.79307949 0 18 C-1.90388006 18 -3.40617984 19.66318069 -4.875 20.75 Z M4 50 C-2.74940126 59.10874491 -2.74940126 59.10874491 -4 70 C-2.23496686 72.92143417 -1.04152365 74.47923817 2 76 C5.94796574 76.3724496 8.33040033 76.34935635 11.875 74.5 C14.10252272 71.87938504 15.14739517 69.89437336 15.40234375 66.4296875 C14.51176694 61.05164115 11.28328959 56.25975695 8 52 C5.902843 50.63723407 5.902843 50.63723407 4 50 Z M-16 53 C-15 55 -15 55 -15 55 Z " fill="#CAB791" transform="translate(46,7)"/>
<path d="M0 0 C0 0.99 0 1.98 0 3 C-0.9590625 3.86625 -0.9590625 3.86625 -1.9375 4.75 C-4.65052623 7.70966498 -4.69808303 10.07507941 -5 14 C-5.33 14 -5.66 14 -6 14 C-6.49029622 6.76813075 -6.49029622 6.76813075 -4.125 3.0625 C-2 1 -2 1 0 0 Z " fill="#DACCAF" transform="translate(42,29)"/>
<path d="M0 0 C-0.125 1.75 -0.125 1.75 -1 4 C-4.0625 6.25 -4.0625 6.25 -7 8 C-4.18918919 0 -4.18918919 0 0 0 Z " fill="#D9CBAD" transform="translate(24,33)"/>
</svg>
