<?xml version="1.0" encoding="UTF-8"?>
<svg version="1.1" xmlns="http://www.w3.org/2000/svg" width="100" height="99">
<path d="M0 0 C-2.28494201 8.73107923 -5.38246278 16.84743807 -11 24 C-10.566875 24.54269531 -10.13375 25.08539063 -9.6875 25.64453125 C-9.130625 26.35996094 -8.57375 27.07539062 -8 27.8125 C-7.443125 28.52019531 -6.88625 29.22789063 -6.3125 29.95703125 C-5 32 -5 32 -5 35 C-4.34 35 -3.68 35 -3 35 C-0.90483315 26.33997702 0.19379512 17.91457539 0 9 C6.53551491 16.45542983 8.770925 26.16365909 8.3828125 35.95703125 C7.19439085 45.40377066 3.99587706 53.61040817 -2 61 C-2.50144531 61.62519531 -3.00289062 62.25039062 -3.51953125 62.89453125 C-10.15651038 70.30663203 -19.54847179 74.5455621 -29.3828125 75.23828125 C-37.40240954 75.3973338 -44.91759329 75.18505851 -52 71 C-52.33 70.01 -52.66 69.02 -53 68 C-51.741875 68.0825 -50.48375 68.165 -49.1875 68.25 C-43.27931669 68.27808962 -38.39833182 66.20358135 -33 64 C-32.01 63.67 -31.02 63.34 -30 63 C-30 62.34 -30 61.68 -30 61 C-28.8553125 59.948125 -28.8553125 59.948125 -27.6875 58.875 C-21.44637471 52.19844736 -21.7017091 45.52252083 -21.89453125 36.78125 C-21.92933594 35.8634375 -21.96414062 34.945625 -22 34 C-24.32907665 35.68895623 -26.63641661 37.3986284 -28.9375 39.125 C-29.59685547 39.599375 -30.25621094 40.07375 -30.93554688 40.5625 C-35.02137823 43.66091017 -35.02137823 43.66091017 -36.94140625 48.3671875 C-36.96074219 49.23601562 -36.98007812 50.10484375 -37 51 C-35.02 52.32 -33.04 53.64 -31 55 C-31.1875 57.375 -31.1875 57.375 -32 60 C-34.5625 61.3125 -34.5625 61.3125 -37 62 C-37.391875 61.05125 -37.78375 60.1025 -38.1875 59.125 C-39.71262957 55.86541663 -39.71262957 55.86541663 -42.5625 54.625 C-44.90349583 53.91720822 -44.90349583 53.91720822 -47 54 C-47.20625 54.598125 -47.4125 55.19625 -47.625 55.8125 C-49.5112944 58.8134229 -51.83361061 59.51373559 -55 61 C-57.84073015 63.23200226 -58.81269012 65.62073343 -60 69 C-62.9375 68.625 -62.9375 68.625 -66 68 C-67.35439668 65.29120665 -67.06501451 62.99066732 -67 60 C-65.68 60 -64.36 60 -63 60 C-62.72027344 59.42378906 -62.44054687 58.84757812 -62.15234375 58.25390625 C-61.04119631 56.08057719 -59.84615416 54.01294084 -58.5625 51.9375 C-58.15128906 51.26589844 -57.74007812 50.59429687 -57.31640625 49.90234375 C-56.02707476 48.03912584 -54.65087399 46.54498703 -53 45 C-55.07143201 40.96615872 -56.96615872 39.07143201 -61 37 C-60.3125 34.5625 -60.3125 34.5625 -59 32 C-56.375 31.1875 -56.375 31.1875 -54 31 C-53.7525 31.804375 -53.505 32.60875 -53.25 33.4375 C-52.27941498 36.10899323 -52.27941498 36.10899323 -50.125 36.875 C-47.68413936 37.01858004 -46.28646049 36.90008053 -44 36 C-42.06649566 33.70127163 -42.06649566 33.70127163 -40.375 30.9375 C-39.29754682 29.26015477 -38.18259437 27.6049495 -37 26 C-36.34 26 -35.68 26 -35 26 C-34.61908203 25.16082031 -34.61908203 25.16082031 -34.23046875 24.3046875 C-27.79463136 12.25026191 -14.53003115 0 0 0 Z M-19 18 C-18.67 19.0725 -18.34 20.145 -18 21.25 C-17 25 -17 25 -17 29 C-19 30.75 -19 30.75 -21 32 C-19.55746343 35.36591866 -17.66735273 37.51047079 -15 40 C-13.78331773 39.00262099 -13.78331773 39.00262099 -13.8671875 37.03125 C-13.88060742 32.68319698 -13.95417681 28.33874011 -14.25 24 C-14.29640625 23.278125 -14.3428125 22.55625 -14.390625 21.8125 C-14.85539318 19.78721348 -14.85539318 19.78721348 -17.046875 18.75 C-17.69140625 18.5025 -18.3359375 18.255 -19 18 Z " fill="#C9B68F" transform="translate(84,15)"/>
<path d="M0 0 C-0.33 0.66 -0.66 1.32 -1 2 C-1.89460938 1.95359375 -2.78921875 1.9071875 -3.7109375 1.859375 C-14.01056821 1.55192334 -21.33954513 2.71325341 -29.375 9.375 C-34.22641001 13.96232116 -37.15796802 18.55288807 -39 25 C-39.66 25 -40.32 25 -41 25 C-41.66 21.7 -42.32 18.4 -43 15 C-44.423125 16.2375 -44.423125 16.2375 -45.875 17.5 C-48.75 20 -48.75 20 -51 20 C-51.27714844 20.5671875 -51.55429687 21.134375 -51.83984375 21.71875 C-53.4088548 24.80394344 -55.14924876 27.78386135 -56.87890625 30.78125 C-59.20922429 35.39316864 -59.28843909 40.16414844 -59.5625 45.25 C-59.60568359 45.99507812 -59.64886719 46.74015625 -59.69335938 47.5078125 C-59.79896725 49.338349 -59.89994201 51.16915176 -60 53 C-65.77618664 45.76789782 -65.8004131 36.91599398 -65 28 C-62.86754638 16.9674256 -57.85427418 7.34716731 -48.94140625 0.30859375 C-33.41029251 -10.1600644 -15.52140329 -11.04407542 0 0 Z " fill="#CAB892" transform="translate(75,14)"/>
<path d="M0 0 C4.29 0 8.58 0 13 0 C10.8614515 2.1385485 9.86724686 2.42655063 7 3 C9.475 3.99 9.475 3.99 12 5 C9.5332355 5.88336837 8.36140628 6.1312406 5.859375 5.22265625 C5.16328125 4.83980469 4.4671875 4.45695312 3.75 4.0625 C3.04359375 3.68222656 2.3371875 3.30195312 1.609375 2.91015625 C1.07828125 2.60980469 0.5471875 2.30945313 0 2 C0 1.34 0 0.68 0 0 Z " fill="#DFD3B9" transform="translate(31,83)"/>
<path d="M0 0 C0.66 0.33 1.32 0.66 2 1 C1.154375 1.515625 0.30875 2.03125 -0.5625 2.5625 C-4.54229113 5.19353136 -7.72851673 8.55429572 -11 12 C-11.66 11.67 -12.32 11.34 -13 11 C-11.33333333 9.33333333 -9.66666667 7.66666667 -8 6 C-6.700625 4.63875 -6.700625 4.63875 -5.375 3.25 C-3 1 -3 1 0 0 Z " fill="#D8CBAD" transform="translate(69,20)"/>
<path d="M0 0 C2.5 2.3125 2.5 2.3125 5 5 C5 5.99 5 6.98 5 8 C4.34 7.34 3.68 6.68 3 6 C2.67 8.31 2.34 10.62 2 13 C1.67 13 1.34 13 1 13 C0.92652344 11.82630859 0.92652344 11.82630859 0.8515625 10.62890625 C0.77679688 9.61699219 0.70203125 8.60507812 0.625 7.5625 C0.55539063 6.55316406 0.48578125 5.54382812 0.4140625 4.50390625 C0.27742188 3.67761719 0.14078125 2.85132813 0 2 C-0.66 1.67 -1.32 1.34 -2 1 C-1.34 0.67 -0.68 0.34 0 0 Z " fill="#E0D4BA" transform="translate(62,47)"/>
<path d="M0 0 C-1.5830577 4.2742558 -4.50568404 6.26531794 -8 9 C-7.53918323 4.85264908 -4.48412936 0 0 0 Z " fill="#D5C5A5" transform="translate(27,15)"/>
</svg>
