<?xml version="1.0" encoding="UTF-8"?>
<svg version="1.1" xmlns="http://www.w3.org/2000/svg" width="102" height="100">
<path d="M0 0 C14.15116934 5.02233567 14.15116934 5.02233567 19 10 C19.2421875 12.69140625 19.2421875 12.69140625 19 15 C19.78375 15.185625 20.5675 15.37125 21.375 15.5625 C24 17 24 17 25.3125 20.625 C25.539375 21.73875 25.76625 22.8525 26 24 C26.68707031 23.6390625 27.37414062 23.278125 28.08203125 22.90625 C28.98308594 22.4421875 29.88414063 21.978125 30.8125 21.5 C31.70582031 21.0359375 32.59914062 20.571875 33.51953125 20.09375 C36 19 36 19 39 19 C44.8548701 21.6011713 50.63440793 24.33968607 54 30 C56.28795532 36.86386596 55.38836006 44.28273733 53 51 C54.16593462 52.3741663 54.16593462 52.3741663 57.375 52.375 C61 53 61 53 62.9375 54.4375 C64 56 64 56 64 58 C64.598125 58.268125 65.19625 58.53625 65.8125 58.8125 C68.01819033 60.00987475 69.43583187 61.04478984 71 63 C71 63.99 71 64.98 71 66 C70.01 66.495 70.01 66.495 69 67 C68.505 68.485 68.505 68.485 68 70 C66.515 69.505 66.515 69.505 65 69 C64.34 70.32 63.68 71.64 63 73 C52.47080773 64.39327261 52.47080773 64.39327261 51.25 58.1875 C51.1675 57.135625 51.085 56.08375 51 55 C48.16813301 53.70081625 48.16813301 53.70081625 46.09765625 54.7421875 C45.42605469 55.11601563 44.75445312 55.48984375 44.0625 55.875 C41.37911872 57.35370337 39.00502577 58.36807064 36 59 C36 58.34 36 57.68 36 57 C34.948125 56.773125 33.89625 56.54625 32.8125 56.3125 C27.84102204 54.88633865 25.30839049 51.72894458 22.25 47.6875 C19.90544889 42.64671512 19.67822015 38.50989006 20.8125 33.1875 C22 30 22 30 24 27 C22.88625 26.773125 21.7725 26.54625 20.625 26.3125 C17 25 17 25 15.5625 22.375 C15.376875 21.59125 15.19125 20.8075 15 20 C14.26136719 20.12503906 13.52273437 20.25007813 12.76171875 20.37890625 C10 20 10 20 7.83203125 17.40234375 C7.13995323 16.25862172 6.46734264 15.1029412 5.8125 13.9375 C5.13832031 12.81214844 4.46414062 11.68679687 3.76953125 10.52734375 C1.98529809 6.97069355 0.95385089 3.83986126 0 0 Z M32 27 C32 28.32 32 29.64 32 31 C34.19464633 33.19464633 35.44367176 33.95929306 38.5625 34.1875 C41 35 41 35 41.87890625 36.73046875 C42.36847107 38.1376472 42.81934926 39.55900842 43.2265625 40.9921875 C44.11355637 43.29478774 45.08866632 44.45734997 47 46 C47.66 46 48.32 46 49 46 C51.05029428 42.14062253 51.26718461 39.15312541 50.62109375 34.93359375 C49.60714991 31.77697614 47.49909606 30.06175425 45 28 C44.67 27.67 44.34 27.34 44 27 C42.33391013 26.95615553 40.66619446 26.9603287 39 27 C36.66666667 27 34.33333333 27 32 27 Z M27 31 C24.65271931 34.66762608 24.5569296 37.71698615 25 42 C27.02658338 45.76365485 29.11233195 49.05616597 33 51 C36.01349195 50.6644218 36.01349195 50.6644218 39 50 C41.375 50.4375 41.375 50.4375 43 51 C43.66 50.01 44.32 49.02 45 48 C42.50179871 45.00215845 41.26790174 44.06004694 37.375 43.1875 C36.26125 42.795625 35.1475 42.40375 34 42 C32.875 38.625 32.875 38.625 32 35 C29.52656069 32.56822967 29.52656069 32.56822967 27 31 Z M37 38 C37 38.66 37 39.32 37 40 C37.66 40 38.32 40 39 40 C39 39.34 39 38.68 39 38 C38.34 38 37.68 38 37 38 Z " fill="#CDBC97" transform="translate(14,13)"/>
<path d="M0 0 C0.66 0 1.32 0 2 0 C2.67260351 1.76858691 3.33788395 3.53996016 4 5.3125 C4.37125 6.29863281 4.7425 7.28476562 5.125 8.30078125 C6 11 6 11 6 14 C6.85271484 14.22042969 6.85271484 14.22042969 7.72265625 14.4453125 C14.72106161 16.47823826 19.6922661 19.19662084 23.54296875 25.54296875 C27 32.25367647 27 32.25367647 27 35 C28.58298026 35.4803318 30.16639978 35.95921612 31.75 36.4375 C32.63171875 36.70433594 33.5134375 36.97117188 34.421875 37.24609375 C36.60565835 37.88468494 38.78835498 38.46775833 41 39 C41 39.99 41 40.98 41 42 C39.64455078 42.43699219 39.64455078 42.43699219 38.26171875 42.8828125 C37.08222656 43.29273438 35.90273437 43.70265625 34.6875 44.125 C32.92986328 44.71667969 32.92986328 44.71667969 31.13671875 45.3203125 C27.37007054 47.33732213 26.50492697 49.07741057 25 53 C23.02 53 21.04 53 19 53 C19.33 52.2575 19.66 51.515 20 50.75 C21.76385911 44.13552833 22.26225888 36.9515469 19.4375 30.5625 C16.57087248 25.75815214 12.92660068 23.02799923 7.67578125 21.18359375 C1.39163543 19.6150236 -3.81205314 20.28844023 -10 22 C-10.66 20.35 -11.32 18.7 -12 17 C-10.948125 16.608125 -9.89625 16.21625 -8.8125 15.8125 C-3.05903802 12.6434183 -1.84872518 5.89547383 0 0 Z " fill="#CDBC98" transform="translate(51,11)"/>
<path d="M0 0 C1.32 0.66 2.64 1.32 4 2 C3.83242188 2.76183594 3.66484375 3.52367187 3.4921875 4.30859375 C1.83472982 12.71127475 1.91334467 18.47891346 5.5 26.25 C9.60568998 30.76625898 14.54463976 33.50197631 20.62890625 34.37890625 C25.74770041 34.49613054 30.17990199 33.67655583 35 32 C35 33.98 35 35.96 35 38 C33.60007812 38.53753906 33.60007812 38.53753906 32.171875 39.0859375 C28.18514434 41.49172325 27.66352449 43.25856477 26.25 47.625 C25.54164192 49.76424141 24.80077663 51.8936093 24 54 C23.01 54.495 23.01 54.495 22 55 C21.75507812 54.04738281 21.51015625 53.09476563 21.2578125 52.11328125 C19.30057106 44.80473358 19.30057106 44.80473358 14.6171875 39.1328125 C12.89086982 38.34437487 11.13961275 37.60815295 9.3671875 36.9296875 C3.93473842 34.79615139 0.91359136 29.82249604 -2 25 C-2.23074219 24.17113281 -2.46148437 23.34226562 -2.69921875 22.48828125 C-4.58202863 18.88662992 -6.85180928 18.4822223 -10.625 17.1875 C-11.81351563 16.76855469 -13.00203125 16.34960938 -14.2265625 15.91796875 C-15.14179688 15.61503906 -16.05703125 15.31210937 -17 15 C-17 14.01 -17 13.02 -17 12 C-15.0429132 11.32968281 -13.08428887 10.66385317 -11.125 10 C-10.03445312 9.62875 -8.94390625 9.2575 -7.8203125 8.875 C-5 8 -5 8 -3 8 C-2.690625 6.865625 -2.38125 5.73125 -2.0625 4.5625 C-1 1 -1 1 0 0 Z " fill="#CDBC97" transform="translate(29,38)"/>
<path d="M0 0 C2.52845528 1.26422764 2.76422764 2.52845528 4 5 C6.3078491 6.15392455 8.47230331 6.53437166 11 7 C11 7.33 11 7.66 11 8 C8.69 8 6.38 8 4 8 C3.67 8.99 3.34 9.98 3 11 C1.02 8.36 -0.96 5.72 -3 3 C-2.34 3 -1.68 3 -1 3 C-0.67 2.01 -0.34 1.02 0 0 Z " fill="#D5C6A7" transform="translate(44,40)"/>
<path d="M0 0 C1.32 0.66 2.64 1.32 4 2 C4 2.66 4 3.32 4 4 C3.34 4 2.68 4 2 4 C1.01 5.485 1.01 5.485 0 7 C-0.66 6.67 -1.32 6.34 -2 6 C-2 5.01 -2 4.02 -2 3 C-1.34 2.67 -0.68 2.34 0 2 C0 1.34 0 0.68 0 0 Z " fill="#D9CBAF" transform="translate(59,57)"/>
<path d="M0 0 C3.465 1.485 3.465 1.485 7 3 C6.01 3.33 5.02 3.66 4 4 C3.01 5.485 3.01 5.485 2 7 C1.34 4.69 0.68 2.38 0 0 Z " fill="#DCCFB5" transform="translate(14,13)"/>
</svg>
