<?xml version="1.0" encoding="UTF-8"?>
<svg version="1.1" xmlns="http://www.w3.org/2000/svg" width="100" height="103">
<path d="M0 0 C0.33 0 0.66 0 1 0 C1.495 5.445 1.495 5.445 2 11 C1.13375 11.53625 0.2675 12.0725 -0.625 12.625 C-4.256281 15.06896478 -7.14901261 17.66225867 -10 21 C-9.74285146 24.3970675 -8.2054655 26.19082426 -5.9375 28.625 C-3 31.79058824 -3 31.79058824 -3 34 C-3.66 34 -4.32 34 -5 34 C-4.74438677 36.3431213 -4.40729228 38.67843403 -4 41 C-3.01 41.495 -3.01 41.495 -2 42 C-1.20358917 47.04393523 -0.58459918 52.03300312 -2 57 C-5.18042066 61.0492185 -8.8657547 63.76238129 -13.08740234 66.65869141 C-15.69433502 68.48693855 -18.15072856 70.48146054 -20.62841797 72.47949219 C-25.2721671 76.22206571 -29.99881756 79.74885425 -35 83 C-33.43276813 77.72090319 -29.99968731 74.10864951 -26.5 70 C-25.23552624 68.48819321 -23.97251875 66.97515889 -22.7109375 65.4609375 C-21.77266113 64.33703613 -21.77266113 64.33703613 -20.81542969 63.19042969 C-18.20353106 60.03901031 -15.64482141 56.8503714 -13.125 53.625 C-12.32320312 52.60664062 -11.52140625 51.58828125 -10.6953125 50.5390625 C-8.72235471 48.09300824 -8.72235471 48.09300824 -9 45 C-10.53353564 43.32154581 -10.53353564 43.32154581 -12.5 41.8125 C-13.1496875 41.28269531 -13.799375 40.75289062 -14.46875 40.20703125 C-14.9740625 39.80871094 -15.479375 39.41039062 -16 39 C-15.34 37.68 -14.68 36.36 -14 35 C-15.22809091 33.35444301 -15.22809091 33.35444301 -17 32 C-20.1790582 32 -21.21621198 33.20039159 -23.5625 35.375 C-25.93055585 37.79152194 -25.93055585 37.79152194 -27.3125 39.9375 C-29 41 -29 41 -30.9609375 40.734375 C-32.99487867 40.2348105 -35.00036154 39.62283821 -37 39 C-37 38.34 -37 37.68 -37 37 C-34.91796875 35.37890625 -34.91796875 35.37890625 -32.1875 33.5625 C-29.18304744 31.5551962 -26.45248587 29.6643285 -24 27 C-24.28875 26.4225 -24.5775 25.845 -24.875 25.25 C-25.57921597 23.84156805 -26.26915468 22.42580336 -26.9375 21 C-27.97989123 18.90609192 -27.97989123 18.90609192 -29.625 16.875 C-31 15 -31 15 -31 13 C-32.98 12.34 -34.96 11.68 -37 11 C-36.66896829 7.93795671 -36.39949096 6.39949096 -34.1875 4.1875 C-32 3 -32 3 -28 3 C-27.67 4.98 -27.34 6.96 -27 9 C-26.278125 9.0825 -25.55625 9.165 -24.8125 9.25 C-21.44686746 10.14750201 -19.58387184 11.7114278 -17 14 C-16.34 13.67 -15.68 13.34 -15 13 C-14.67 13.66 -14.34 14.32 -14 15 C-8.31874185 12.50220547 -5.01199587 7.65200094 -1.6875 2.5625 C-1.130625 1.716875 -0.57375 0.87125 0 0 Z " fill="#CBBA95" transform="translate(49,11)"/>
<path d="M0 0 C1.93210627 2.39581177 3.84766849 4.79500632 5.68359375 7.265625 C6.28300781 8.06484375 6.88242187 8.8640625 7.5 9.6875 C8.35078125 10.83798828 8.35078125 10.83798828 9.21875 12.01171875 C11.03825245 14.04269845 12.49901589 14.97437713 15 16 C15.33 15.01 15.66 14.02 16 13 C16.99 13.33 17.98 13.66 19 14 C21.05727132 12.4045651 23.05874656 10.73473712 25 9 C25.66 8.67 26.32 8.34 27 8 C27.72159424 6.35636866 28.39351421 4.68949614 29 3 C31.6635969 3.35994553 33.58183452 3.71161002 35.8125 5.25 C37.39364795 7.58011277 37.22337696 9.24501755 37 12 C35.02 12.33 33.04 12.66 31 13 C30.896875 13.5775 30.79375 14.155 30.6875 14.75 C30 17 30 17 28.5625 18.875 C26.6747986 21.4422739 25.89779129 23.96132179 25 27 C26.41489734 28.27280294 27.83199666 29.5431583 29.25 30.8125 C30.03890625 31.52019531 30.8278125 32.22789063 31.640625 32.95703125 C33.7016833 34.74168935 35.79605523 36.39759062 38 38 C34.55549263 40.29633824 32.06187717 40.54016485 28 41 C27.1028125 39.6078125 27.1028125 39.6078125 26.1875 38.1875 C23.9650001 34.70801668 23.9650001 34.70801668 21 32 C18.39351495 31.83789781 18.39351495 31.83789781 16 33 C14.62533375 35.47636012 14.62533375 35.47636012 14 38 C14.66 38 15.32 38 16 38 C14.44165785 41.82502165 11.92784104 44.14783821 9 47 C16.58814911 56.68540923 16.58814911 56.68540923 24.25 66.3125 C24.87261719 67.09367187 25.49523437 67.87484375 26.13671875 68.6796875 C27.43805305 70.30021701 28.7544388 71.90872365 30.08203125 73.5078125 C30.73558594 74.30960937 31.38914063 75.11140625 32.0625 75.9375 C32.65160156 76.64777344 33.24070313 77.35804687 33.84765625 78.08984375 C34.22792969 78.72019531 34.60820313 79.35054688 35 80 C34.505 81.485 34.505 81.485 34 83 C33.10539062 82.2265625 32.21078125 81.453125 31.2890625 80.65625 C25.77436229 75.90138014 20.26485857 71.15515812 14.5625 66.625 C13.78132813 65.99980469 13.00015625 65.37460938 12.1953125 64.73046875 C10.76977207 63.60677762 9.32762737 62.50372497 7.8671875 61.42578125 C4.6028876 58.90817343 3.20042063 57.67641962 2 53.625 C2 49.57866623 2.24542327 45.97867731 3 42 C3.99 41.505 3.99 41.505 5 41 C5 40.0925 5 39.185 5 38.25 C5 30.5 5 30.5 8 26.75 C8.556875 26.04359375 9.11375 25.3371875 9.6875 24.609375 C10.3371875 23.81273437 10.3371875 23.81273437 11 23 C8.40912535 17.8182507 4.20252517 13.60126259 -1 11 C-1.0270043 9.54176788 -1.04639787 8.08339325 -1.0625 6.625 C-1.07410156 5.81289063 -1.08570313 5.00078125 -1.09765625 4.1640625 C-1 2 -1 2 0 0 Z " fill="#CCBA95" transform="translate(55,11)"/>
<path d="M0 0 C5.12224324 1.60697827 8.19118652 4.50552979 11.1875 9 C10.86609902 12.36801439 9.44743783 14.13415335 7.1875 16.5625 C5.06916863 18.84887208 4.19832314 19.96753059 3.1875 23 C4.1775 23.33 5.1675 23.66 6.1875 24 C5.8125 26.4375 5.8125 26.4375 5.1875 29 C4.5275 29.33 3.8675 29.66 3.1875 30 C3.1875 43.53 3.1875 57.06 3.1875 71 C0.8775 71 -1.4325 71 -3.8125 71 C-3.8125 70.34 -3.8125 69.68 -3.8125 69 C-5.2975 69.99 -5.2975 69.99 -6.8125 71 C-9.14449388 71.07905064 -11.48082622 71.08798769 -13.8125 71 C-14.5 69.1875 -14.5 69.1875 -14.8125 67 C-13.375 65.25 -13.375 65.25 -11.8125 64 C-12.121875 63.4225 -12.43125 62.845 -12.75 62.25 C-13.7575856 60.11628933 -14.50069872 58.3385096 -14.8125 56 C-12.8125 54 -12.8125 54 -9.6875 53.875 C-8.73875 53.91625 -7.79 53.9575 -6.8125 54 C-6.4825 54.99 -6.1525 55.98 -5.8125 57 C-5.1525 57 -4.4925 57 -3.8125 57 C-3.8125 47.76 -3.8125 38.52 -3.8125 29 C-4.8025 28.67 -5.7925 28.34 -6.8125 28 C-6.8125 26.35 -6.8125 24.7 -6.8125 23 C-5.8225 23 -4.8325 23 -3.8125 23 C-5.81022415 19.93206649 -7.70026517 17.12740169 -10.125 14.375 C-11.8125 12 -11.8125 12 -11.875 10 C-10.34353706 7.11724624 -8.19314369 5.21059771 -5.8125 3 C-5.338125 2.38125 -4.86375 1.7625 -4.375 1.125 C-2.8125 0 -2.8125 0 0 0 Z M-4 8 C-4.598125 8.66 -5.19625 9.32 -5.8125 10 C-4.59242056 12.6905528 -4.59242056 12.6905528 -2.8125 15 C-0.39666247 15.33374277 -0.39666247 15.33374277 2.1875 15 C4.00226003 13.60414215 4.00226003 13.60414215 5.1875 12 C4.03576645 9.53199953 3.13966435 7.95216435 1.1875 6 C-1.93748166 5.6626154 -1.93748166 5.6626154 -4 8 Z " fill="#CAB893" transform="translate(52.8125,23)"/>
</svg>
