<?xml version="1.0" encoding="UTF-8"?>
<svg version="1.1" xmlns="http://www.w3.org/2000/svg" width="100" height="101">
<path d="M0 0 C1.9375 0.25 1.9375 0.25 4 1 C4.66 1.99 5.32 2.98 6 4 C8.475 4.495 8.475 4.495 11 5 C11.33 8.63 11.66 12.26 12 16 C13.32 15.67 14.64 15.34 16 15 C19.57461329 20.37610491 18.55294238 27.9817146 17.54248047 34.09521484 C16.69756083 37.06193988 15.29103386 38.35461867 12.8125 40.125 C10.90570502 41.14305792 8.96346837 42.09606362 7 43 C5.78361591 43.65644006 4.57153499 44.32090014 3.36328125 44.9921875 C-6.03844951 50.07903155 -6.03844951 50.07903155 -9.28125 49.8125 C-12.17838728 48.44294419 -13.30747401 46.70804158 -15 44 C-16.94438079 38.4475971 -17.22570949 33.79426304 -16 28 C-15.814375 27.030625 -15.62875 26.06125 -15.4375 25.0625 C-15.293125 24.381875 -15.14875 23.70125 -15 23 C-13.35 23.33 -11.7 23.66 -10 24 C-9.95101562 23.07058594 -9.90203125 22.14117187 -9.8515625 21.18359375 C-9.10896309 8.90509666 -9.10896309 8.90509666 -7 3 C-5.68 3 -4.36 3 -3 3 C-2.67 4.65 -2.34 6.3 -2 8 C-1.855625 6.865625 -1.71125 5.73125 -1.5625 4.5625 C-1 1 -1 1 0 0 Z " fill="#C9B790" transform="translate(50,10)"/>
<path d="M0 0 C6.95457214 2.54265659 12.12348504 7.96549284 15.25 14.6875 C16.81859954 21.61548131 16.96024805 27.94496919 13.29296875 34.203125 C6.52202527 43.6128954 -5.90009224 47.6302834 -16.08984375 52.37109375 C-17.36263184 52.96603638 -17.36263184 52.96603638 -18.66113281 53.57299805 C-20.30942612 54.34091668 -21.9610022 55.10183931 -23.61621094 55.85473633 C-30.82828327 59.19771694 -30.82828327 59.19771694 -36.25 64.875 C-37.19437868 67.55073958 -37.61731901 70.19367274 -38 73 C-40.6690036 70.44704003 -41.88428838 69.01826222 -42.3125 65.25 C-41.85625592 60.50506157 -39.92603169 57.85507263 -36.515625 54.5703125 C-31.58162645 50.53141988 -25.99217326 47.94131957 -20.29492188 45.17895508 C-6.59432651 38.52497135 -6.59432651 38.52497135 4 28 C6.56198381 20.31404857 5.85181013 11.91566045 2.5 4.625 C1.69304241 3.06936508 0.86947277 1.52157736 0 0 Z " fill="#CBBA95" transform="translate(69,13)"/>
<path d="M0 0 C0.33 0 0.66 0 1 0 C0.58339087 5.3117664 -0.15332556 8.25195824 -4 12 C-9.29466153 15.75755149 -14.90439301 18.39215432 -20.875 20.875 C-32.48691389 25.3983641 -32.48691389 25.3983641 -41.0390625 33.8515625 C-42.02069665 36.9273495 -42 39.77883867 -42 43 C-45 42 -45 42 -46.75 39.3125 C-48.21925766 35.4189672 -48.35999853 33.91999577 -47 30 C-42.39803735 22.46951566 -34.91965541 19.62383093 -27.20507812 16.03369141 C-23.56725039 14.32835896 -19.97173731 12.53993946 -16.375 10.75 C-15.7248291 10.43297119 -15.0746582 10.11594238 -14.40478516 9.78930664 C-9.07108171 7.15290949 -4.11855307 4.33531903 0 0 Z " fill="#D0C09E" transform="translate(81,50)"/>
<path d="M0 0 C3.73348807 1.79207427 7.44624009 3.59719315 11.125 5.5 C11.125 9.46 11.125 13.42 11.125 17.5 C7.99987659 16.0210936 4.87489598 14.54188682 1.75 13.0625 C0.41582031 12.43118164 0.41582031 12.43118164 -0.9453125 11.78710938 C-1.79609375 11.38427734 -2.646875 10.98144531 -3.5234375 10.56640625 C-4.30895996 10.19459229 -5.09448242 9.82277832 -5.90380859 9.43969727 C-7.233629 8.80575142 -8.55733248 8.15883376 -9.875 7.5 C-9.63692961 4.16701453 -8.75702817 3.39574583 -6.1875 1.125 C-2.875 -0.5 -2.875 -0.5 0 0 Z " fill="#CCBB97" transform="translate(53.875,76.5)"/>
<path d="M0 0 C0 2.64 0 5.28 0 8 C-3.40312738 6.94124926 -6.01353231 5.99097846 -9 4 C-8 1 -8 1 -6.1875 -0.25 C-3.66056586 -1.11637742 -2.47778006 -0.88492145 0 0 Z " fill="#D5C8A9" transform="translate(65,72)"/>
<path d="M0 0 C0.66 0.33 1.32 0.66 2 1 C0.02 3.31 -1.96 5.62 -4 8 C-4.33 7.01 -4.66 6.02 -5 5 C-3.35 3.35 -1.7 1.7 0 0 Z " fill="#D1C2A1" transform="translate(34,66)"/>
<path d="M0 0 C2.9719385 1.12451727 5.33440687 2.22293791 8 4 C7.67 4.66 7.34 5.32 7 6 C6.01 6 5.02 6 4 6 C0 1.54285714 0 1.54285714 0 0 Z " fill="#DED4BC" transform="translate(69,13)"/>
<path d="M0 0 C2.0625 0.4375 2.0625 0.4375 4 1 C3.67 1.66 3.34 2.32 3 3 C2.34 3 1.68 3 1 3 C0.67 5.31 0.34 7.62 0 10 C-0.33 10 -0.66 10 -1 10 C-1.02689216 8.52093108 -1.04634621 7.04172517 -1.0625 5.5625 C-1.07410156 4.73878906 -1.08570313 3.91507813 -1.09765625 3.06640625 C-1 1 -1 1 0 0 Z " fill="#D4C6A8" transform="translate(63,25)"/>
</svg>
