<?xml version="1.0" encoding="UTF-8"?>
<svg version="1.1" xmlns="http://www.w3.org/2000/svg" width="101" height="100">
<path d="M0 0 C0.23074219 0.86882813 0.46148438 1.73765625 0.69921875 2.6328125 C1.18841797 4.36144531 1.18841797 4.36144531 1.6875 6.125 C2.00074219 7.26195312 2.31398438 8.39890625 2.63671875 9.5703125 C5.493898 16.75828782 10.35961197 20.27282111 16.6875 24.25 C23.81763926 28.81763926 23.81763926 28.81763926 26 31 C29.05735485 31.35197152 29.05735485 31.35197152 30.7578125 29.2578125 C31.86769531 28.14019531 31.86769531 28.14019531 33 27 C34.66517 25.96879834 36.33234265 24.9398684 38.02636719 23.95678711 C46.76307382 18.84422146 51.72593138 13.38847937 54.375 3.375 C54.58125 2.26125 54.7875 1.1475 55 0 C57.9375 0.75 57.9375 0.75 61 2 C61.875 4.125 61.875 4.125 62 6 C62.99 6 63.98 6 65 6 C67.5625 6.1875 67.5625 6.1875 70 7 C71.15234375 9.55078125 71.15234375 9.55078125 72 12 C64.62746446 18.36082993 57.24165155 24.69306164 49.67578125 30.82421875 C47.76681967 32.37646927 45.86960587 33.94321373 43.98046875 35.51953125 C42.99691406 36.33808594 42.01335937 37.15664062 41 38 C40.113125 38.7425 39.22625 39.485 38.3125 40.25 C36 42 36 42 33 43 C32.67 44.32 32.34 45.64 32 47 C29.03 47 26.06 47 23 47 C22.505 45.02 22.505 45.02 22 43 C20.22883725 41.9882862 20.22883725 41.9882862 18 41 C16.00142871 39.38576934 14.0575437 37.75182944 12.125 36.0625 C7.40566507 31.99706919 2.60788544 28.06956248 -2.3125 24.25 C-7.35916114 20.32759506 -12.26988581 16.30411012 -17 12 C-16.3125 9.5625 -16.3125 9.5625 -15 7 C-12.5 6.375 -12.5 6.375 -10 6 C-9.34 5.01 -8.68 4.02 -8 3 C-7.34 3 -6.68 3 -6 3 C-5.67 3.66 -5.34 4.32 -5 5 C-4.87625 4.360625 -4.7525 3.72125 -4.625 3.0625 C-4.41875 2.381875 -4.2125 1.70125 -4 1 C-2 0 -2 0 0 0 Z " fill="#CAB791" transform="translate(24,44)"/>
<path d="M0 0 C6.33279872 2.2702486 6.33279872 2.2702486 9 5.1875 C10.59695464 9.67893493 10.15031757 13.54955606 8.16015625 17.7890625 C5.10774951 22.54690646 0.81781042 25.66731018 -3.62109375 29.07421875 C-7.10729036 31.89637791 -9.97654068 34.95308137 -12 39 C-12.5632028 44.51938739 -11.33980852 48.13128862 -8.97265625 52.984375 C-8 55 -8 55 -7 58 C-12.29490609 56.5559347 -15.60018893 53.13014085 -19 49 C-22.15321489 43.40558648 -23.10755016 38.22882789 -21.484375 32.03125 C-18.39581024 24.40067823 -11.10547922 20.10239529 -4.76171875 15.30859375 C-1.73712775 12.91021207 -0.22340037 11.68416362 1 7.9375 C1 5.12501997 0.71859692 2.71469947 0 0 Z " fill="#CAB892" transform="translate(50,7)"/>
<path d="M0 0 C6.13690233 2.56893586 10.36276225 6.98728547 13.02734375 13.0546875 C14.63694813 18.10255922 14.28006485 22.33910197 12.1875 27.1875 C9.44739125 32.13926795 4.95870915 37.11978469 -0.5625 38.81640625 C-1.42875 38.96916016 -1.42875 38.96916016 -2.3125 39.125 C-2.044375 38.465 -1.77625 37.805 -1.5 37.125 C-1.108125 36.135 -0.71625 35.145 -0.3125 34.125 C-0.03664063 33.52042969 0.23921875 32.91585937 0.5234375 32.29296875 C2.77340389 27.06024875 3.03525627 23.6957259 1.6875 18.125 C-0.70186287 13.7729462 -3.71454443 10.52306915 -7.3125 7.125 C-6.01648738 3.23696214 -4.39870078 0.23776761 0 0 Z " fill="#CAB892" transform="translate(61.3125,25.875)"/>
<path d="M0 0 C2.5093714 1.2546857 2.65114733 2.15724715 3.75 4.6875 C5.82610155 9.05203166 8.4393295 11.76302681 12 15 C10.96973771 17.69453213 9.88336984 20.21382196 8.5 22.75 C6.9070384 26.20141679 6.23374388 29.31831875 5.625 33.046875 C5 35 5 35 2 37 C2 29.74 2 22.48 2 15 C0.68 15 -0.64 15 -2 15 C-1.67 15.99 -1.34 16.98 -1 18 C-0.9193378 19.48123547 -0.89238807 20.96582204 -0.90234375 22.44921875 C-0.90556641 23.29677734 -0.90878906 24.14433594 -0.91210938 25.01757812 C-0.92048828 25.89865234 -0.92886719 26.77972656 -0.9375 27.6875 C-0.94201172 28.58017578 -0.94652344 29.47285156 -0.95117188 30.39257812 C-0.96295017 32.59511987 -0.97939836 34.79752599 -1 37 C-4.71563654 34.52290897 -4.58642724 33.50007765 -5.4375 29.25 C-6.56091595 24.27828687 -7.81660473 20.95180103 -11 17 C-9.68086462 14.10926313 -8.21256333 11.955603 -6.0625 9.625 C-3.4200775 6.6337002 -1.61400753 3.67635049 0 0 Z " fill="#CCBA94" transform="translate(51,36)"/>
<path d="M0 0 C0.66 0 1.32 0 2 0 C3.05699482 5.28497409 3.05699482 5.28497409 3 8 C1.0625 10.5 1.0625 10.5 -1 12 C-1.99 11.67 -2.98 11.34 -4 11 C-4.35858439 7.14521782 -4.2754818 5.42240542 -2.125 2.125 C-1.42375 1.42375 -0.7225 0.7225 0 0 Z " fill="#D1C19F" transform="translate(44,11)"/>
<path d="M0 0 C0.66 0.33 1.32 0.66 2 1 C-1.63 4.63 -5.26 8.26 -9 12 C-9 8.00102358 -7.64683965 6.93298448 -5 4 C-3.36643049 2.62631655 -1.7074998 1.28062485 0 0 Z " fill="#D7C9AA" transform="translate(40,26)"/>
<path d="M0 0 C0.721875 0.268125 1.44375 0.53625 2.1875 0.8125 C1.589375 1.06 0.99125 1.3075 0.375 1.5625 C-2.73184279 3.33783874 -4.2336829 5.65486579 -5.8125 8.8125 C-6.4725 7.4925 -7.1325 6.1725 -7.8125 4.8125 C-3.50480769 -0.23365385 -3.50480769 -0.23365385 0 0 Z " fill="#D9CCAE" transform="translate(61.8125,26.1875)"/>
<path d="M0 0 C0.66 0.33 1.32 0.66 2 1 C1.62875 1.763125 1.2575 2.52625 0.875 3.3125 C0.58625 4.199375 0.2975 5.08625 0 6 C0.99 7.485 0.99 7.485 2 9 C0.0625 8.1875 0.0625 8.1875 -2 7 C-2.33 6.01 -2.66 5.02 -3 4 C-1.5625 1.8125 -1.5625 1.8125 0 0 Z " fill="#DBCDB2" transform="translate(10,50)"/>
</svg>
