<?xml version="1.0" encoding="UTF-8"?>
<svg version="1.1" xmlns="http://www.w3.org/2000/svg" width="116" height="100">
<path d="M0 0 C0.66 0 1.32 0 2 0 C2.20568604 0.54825439 2.41137207 1.09650879 2.62329102 1.66137695 C8.68135819 18.70315374 8.68135819 18.70315374 19.203125 33.15625 C21 35 21 35 21 37 C21.55816406 37.25265625 22.11632813 37.5053125 22.69140625 37.765625 C26.249589 39.66813896 29.29703397 42.24713023 32.46484375 44.734375 C34.92039779 46.29692303 34.92039779 46.29692303 37.484375 45.421875 C55.89559789 35.01553163 63.54263416 19.3149527 70 0 C73 1 73 1 73.984375 2.609375 C76.50527894 9.65761664 75.85611776 15.60625573 75 23 C78.465 18.05 78.465 18.05 82 13 C84.51522009 15.51522009 84.35317085 16.50778101 84.4375 20 C84.3631655 26.25235728 82.20011384 30.73124115 79 36 C81.92880826 34.6021597 84.64879308 33.26340519 87.25 31.3125 C89 30 89 30 91 30 C89.39182934 39.52206309 85.69583998 45.18073184 78 51 C77.01 51.495 77.01 51.495 76 52 C79.12290635 51.51421457 81.99580359 51.0013988 85 50 C84.51430343 54.27560164 83.44040072 55.98538769 80.125 58.6875 C79.07699219 59.55955078 79.07699219 59.55955078 78.0078125 60.44921875 C76.38832586 61.70006738 74.70262769 62.86491488 73 64 C72.7525 64.61875 72.505 65.2375 72.25 65.875 C70.33253821 69.13468505 67.42416283 70.64109845 64 72 C62.01452982 72.157577 60.02903935 72.31502411 58.04296875 72.46484375 C54.56781921 73.37516017 52.4347082 75.83630851 49.8984375 78.27734375 C47.43249329 80.51495979 45.04664172 81.70517727 42 83 C43.25752926 77.69043203 45.99470813 73.99900499 49.1171875 69.6484375 C53.92264054 62.88889982 57.68728478 57.44331101 58 49 C57.88785156 49.57105469 57.77570313 50.14210937 57.66015625 50.73046875 C54.60905471 63.27388621 45.17753632 73.35321365 37 83 C32.17383667 79.26872745 28.51833886 75.25600592 24.875 70.375 C24.34874023 69.67439453 23.82248047 68.97378906 23.28027344 68.25195312 C19.34992496 62.85173831 16.60499212 57.53065759 15 51 C15.3660432 57.52777032 17.88185509 61.75521182 21.375 67.1875 C21.87 67.98091797 22.365 68.77433594 22.875 69.59179688 C25.61051672 73.96649874 25.61051672 73.96649874 28.72900391 78.06762695 C29.14843262 78.70531006 29.56786133 79.34299316 30 80 C29.505 81.485 29.505 81.485 29 83 C28.16855469 82.37351562 27.33710937 81.74703125 26.48046875 81.1015625 C25.38284458 80.27599902 24.28518655 79.45048054 23.1875 78.625 C22.64029297 78.2125 22.09308594 77.8 21.52929688 77.375 C16.90721562 73.38274391 16.90721562 73.38274391 11.3125 72.1875 C6.82367357 71.93341549 3.25224006 70.13667823 0 67 C0 65.68 0 64.36 0 63 C-0.70125 62.773125 -1.4025 62.54625 -2.125 62.3125 C-6.96799564 60.10156721 -10.30759769 57.6680601 -12.375 52.6875 C-12.58125 51.800625 -12.7875 50.91375 -13 50 C-10.03 50.66 -7.06 51.32 -4 52 C-4.59167969 51.59910156 -5.18335938 51.19820312 -5.79296875 50.78515625 C-11.5183025 46.6662783 -15.52194565 42.70532354 -18 36 C-18.3125 32.4375 -18.3125 32.4375 -18 30 C-16.56161448 30.79005662 -15.12432585 31.58211045 -13.6875 32.375 C-12.88699219 32.81585938 -12.08648437 33.25671875 -11.26171875 33.7109375 C-9.46472057 34.73513335 -7.72099292 35.85267138 -6 37 C-6.34933594 36.31292969 -6.69867188 35.62585937 -7.05859375 34.91796875 C-7.51363281 34.01691406 -7.96867188 33.11585937 -8.4375 32.1875 C-8.88996094 31.29417969 -9.34242187 30.40085937 -9.80859375 29.48046875 C-11.37391048 26.22153065 -12.15353242 23.58697594 -12.1875 20 C-12.20167969 19.319375 -12.21585938 18.63875 -12.23046875 17.9375 C-12 16 -12 16 -10 13 C-7.36 16.63 -4.72 20.26 -2 24 C-2.33 22.68 -2.66 21.36 -3 20 C-3.14338806 17.71130596 -3.22041303 15.41799044 -3.25 13.125 C-3.27578125 11.93132813 -3.3015625 10.73765625 -3.328125 9.5078125 C-2.971478 5.6950862 -1.91012905 3.28743262 0 0 Z M13 42 C14 45 14 45 14 45 Z M21 46 C19.79532748 53.57222726 23.84323703 58.92534833 28 65 C30.21455686 67.79170971 32.5224503 70.4396143 35 73 C42.00318981 70.23055676 47.09213688 62.11824456 50.5625 55.6875 C51.98240347 52.04513893 52.12434541 49.83308232 52 46 C50.22821947 46.956581 48.45760924 47.91532988 46.6875 48.875 C45.70136719 49.40867188 44.71523437 49.94234375 43.69921875 50.4921875 C40.90413542 52.00722126 40.90413542 52.00722126 38 54 C33.59480094 53.70732068 30.41062133 51.68773817 26.6875 49.4375 C25.61886719 48.79683594 24.55023438 48.15617187 23.44921875 47.49609375 C22.64097656 47.00238281 21.83273438 46.50867187 21 46 Z " fill="#CAB893" transform="translate(22,7)"/>
<path d="M0 0 C2.31640625 2.1015625 2.31640625 2.1015625 4.5625 4.625 C7.68882326 7.64631698 9.16468287 8.91231478 13.53515625 9.37109375 C16.75585155 9.09423311 19.8408807 8.67836888 23 8 C22.46805241 12.80190528 21.08984737 16.11072045 18.625 20.25 C18.01914063 21.28640625 17.41328125 22.3228125 16.7890625 23.390625 C15 26 15 26 12 28 C12.66 24.37 13.32 20.74 14 17 C13.13117188 17.25652344 12.26234375 17.51304688 11.3671875 17.77734375 C8 18 8 18 5.0078125 16.12890625 C4.05648437 15.28199219 3.10515625 14.43507813 2.125 13.5625 C0.67480469 12.29599609 0.67480469 12.29599609 -0.8046875 11.00390625 C-1.52914062 10.34261719 -2.25359375 9.68132813 -3 9 C-6.74895737 11.02443698 -9.97041753 12.87625192 -13.0625 15.8125 C-16 18 -16 18 -19.375 17.8125 C-20.24125 17.544375 -21.1075 17.27625 -22 17 C-21.01 20.63 -20.02 24.26 -19 28 C-23.12321916 26.62559361 -24.12904954 23.86171989 -26.125 20.25 C-26.48464844 19.62867187 -26.84429687 19.00734375 -27.21484375 18.3671875 C-29.14398642 14.94241736 -30.5071981 11.91254845 -31 8 C-30.09636719 8.08378906 -29.19273438 8.16757812 -28.26171875 8.25390625 C-27.08222656 8.35574219 -25.90273438 8.45757812 -24.6875 8.5625 C-23.51574219 8.66691406 -22.34398437 8.77132813 -21.13671875 8.87890625 C-17.96967425 9.18577434 -17.96967425 9.18577434 -15 8 C-15 7.34 -15 6.68 -15 6 C-10.52941176 2 -10.52941176 2 -8 2 C-8 1.34 -8 0.68 -8 0 C-5.0058414 -1.4970793 -3.18889161 -0.85930577 0 0 Z " fill="#CEBD9A" transform="translate(62,12)"/>
<path d="M0 0 C0.66 0.33 1.32 0.66 2 1 C-0.475 2.485 -0.475 2.485 -3 4 C0.12290635 3.51421457 2.99580359 3.0013988 6 2 C5.67 3.65 5.34 5.3 5 7 C4.67 6.34 4.34 5.68 4 5 C3.01 5.33 2.02 5.66 1 6 C-0.56118428 6.06740865 -2.1250252 6.08514456 -3.6875 6.0625 C-4.89986328 6.04896484 -4.89986328 6.04896484 -6.13671875 6.03515625 C-7.05904297 6.01775391 -7.05904297 6.01775391 -8 6 C-5.54080489 3.3651481 -3.42227589 1.25483449 0 0 Z " fill="#E3DBC6" transform="translate(101,55)"/>
<path d="M0 0 C7.625 0.875 7.625 0.875 11 2 C11 2.66 11 3.32 11 4 C7.94152152 4.54372951 5.11227195 5 2 5 C2 3.68 2 2.36 2 1 C1.34 0.67 0.68 0.34 0 0 Z " fill="#E1D8C1" transform="translate(20,69)"/>
<path d="M0 0 C-1.485 2.475 -1.485 2.475 -3 5 C-3.33 4.34 -3.66 3.68 -4 3 C-5.98 3 -7.96 3 -10 3 C-10 2.34 -10 1.68 -10 1 C-3.375 -1.125 -3.375 -1.125 0 0 Z " fill="#E1D8C1" transform="translate(96,70)"/>
<path d="M0 0 C-0.33 1.98 -0.66 3.96 -1 6 C-1.33 4.68 -1.66 3.36 -2 2 C-2.680625 2.165 -3.36125 2.33 -4.0625 2.5 C-7.4164822 3.07089059 -10.60389805 3.06659023 -14 3 C-13.67 2.34 -13.34 1.68 -13 1 C-11.07421875 0.5859375 -11.07421875 0.5859375 -8.6875 0.375 C-7.90761719 0.30023437 -7.12773438 0.22546875 -6.32421875 0.1484375 C-4.21985253 0.014041 -2.10865351 0 0 0 Z " fill="#DDD2B9" transform="translate(85,20)"/>
</svg>
