<?xml version="1.0" ?><svg style="enable-background:new 0 0 64 64;" version="1.1" viewBox="0 0 64 64" xml:space="preserve" xmlns="http://www.w3.org/2000/svg" xmlns:xlink="http://www.w3.org/1999/xlink"><style type="text/css">
	.st0{fill:none;stroke:#000000;stroke-width:2;stroke-linecap:round;stroke-linejoin:round;stroke-miterlimit:10;}
	.st1{fill:none;stroke:#000000;stroke-width:2;stroke-miterlimit:10;}
</style><g id="Layer_1"/><g id="Layer_2"><g><path class="st0" d="M48.1,53.5l0.8,0.4c1.4,0.7,3.1,0.4,4.2-0.7c0,0,0,0,0,0c1.1-1.1,1.4-2.8,0.7-4.2l-2.9-6c-1-2,0-4.4,2.2-5.2    l6.3-2.2C61,35,62,33.6,62,32c0,0,0,0,0,0s0,0,0,0c0-1.6-1-3-2.5-3.5l-1.7-0.6"/><path class="st0" d="M40.8,50.7c0.7-0.1,1.5,0,2.2,0.3l0.6,0.3"/><path class="st0" d="M50.7,22.1c0.1-0.3,0.2-0.7,0.3-1l2.9-6c0.7-1.4,0.4-3.1-0.7-4.2c0,0,0,0,0,0c-1.1-1.1-2.8-1.4-4.2-0.7    l-6,2.9c-2,1-4.4,0-5.2-2.2l-2.2-6.3C35,3,33.6,2,32,2c0,0,0,0,0,0s0,0,0,0c-1.6,0-3,1-3.5,2.5l-2.2,6.3c-0.8,2.1-3.2,3.1-5.2,2.2    l-6-2.9c-1.4-0.7-3.1-0.4-4.2,0.7c0,0,0,0,0,0c-1.1,1.1-1.4,2.8-0.7,4.2l2.9,6c1,2,0,4.4-2.2,5.2l-6.3,2.2C3,29,2,30.4,2,32    c0,0,0,0,0,0s0,0,0,0c0,1.6,1,3,2.5,3.5l6.3,2.2c2.1,0.8,3.1,3.2,2.2,5.2l-2.9,6c-0.7,1.4-0.4,3.1,0.7,4.2c0,0,0,0,0,0    c1.1,1.1,2.8,1.4,4.2,0.7l6-2.9c2-1,4.4,0,5.2,2.2l2.2,6.3C29,61,30.4,62,32,62c0,0,0,0,0,0s0,0,0,0c1.6,0,3-1,3.5-2.5l2.1-6"/><path class="st0" d="M39.7,34.8c-0.3,0.8-0.7,1.5-1.1,2.1"/><path class="st0" d="M34.2,39.9c-0.7,0.2-1.4,0.3-2.2,0.3c-4.5,0-8.2-3.7-8.2-8.2s3.7-8.2,8.2-8.2c3.4,0,6.3,2.1,7.5,5"/></g></g></svg>