<?xml version="1.0" ?><svg style="enable-background:new 0 0 64 64;" version="1.1" viewBox="0 0 64 64" xml:space="preserve" xmlns="http://www.w3.org/2000/svg" xmlns:xlink="http://www.w3.org/1999/xlink"><style type="text/css">
	.st0{fill:none;stroke:#000000;stroke-width:2;stroke-linecap:round;stroke-linejoin:round;stroke-miterlimit:10;}
	.st1{fill:none;stroke:#000000;stroke-width:2;stroke-miterlimit:10;}
</style><g id="Layer_1"/><g id="Layer_2"><g><path class="st0" d="M39.3,46.6l-2.4,5.7c-1.5,3.4-4.5,5.8-8.1,6.6C28,58.9,27.3,59,26.6,59c-2.9,0-5.8-1.2-7.9-3.3l-7.4-7.4    c-2.2-2.2-2.2-5.7,0-7.9c2.2-2.2,5.7-2.2,7.9,0c0,0,0,0,0,0l7.4,7.4L38,21.4l5.6-13c1.2-2.8,4.5-4.1,7.3-2.9    c2.8,1.2,4.1,4.5,2.9,7.3l-9.4,22"/></g><g><line class="st0" x1="20.1" x2="16.5" y1="48.3" y2="44.8"/><line class="st0" x1="38.2" x2="35" y1="35.9" y2="43.3"/><line class="st0" x1="47.3" x2="41.5" y1="14.8" y2="28.2"/></g></g></svg>