<?xml version="1.0" ?><!DOCTYPE svg  PUBLIC '-//W3C//DTD SVG 1.1//EN'  'http://www.w3.org/Graphics/SVG/1.1/DTD/svg11.dtd'><svg enable-background="new 0 0 24 24" height="24px" id="Layer_1" version="1.1" viewBox="0 0 24 24" width="24px" xml:space="preserve" xmlns="http://www.w3.org/2000/svg" xmlns:xlink="http://www.w3.org/1999/xlink"><g><path d="M22,4.9c-2.6-2.6-6.8-2.6-9.4,0c-0.2,0.2-0.5,0.5-0.7,0.8c-0.2-0.3-0.4-0.5-0.7-0.8C8.7,2.4,4.6,2.4,2,4.9   c-2.6,2.6-2.6,6.8,0,9.4l10,10l10-10C24.6,11.7,24.6,7.5,22,4.9z M20.7,13c-0.5,0.5-8.7,8.7-8.7,8.7S3.8,13.4,3.3,13   c-1.8-1.8-1.8-4.8,0-6.7c1.8-1.8,4.8-1.8,6.7,0c0.4,0.4,2,2,2,2s1.6-1.6,2-2c1.8-1.8,4.8-1.8,6.7,0C22.6,8.1,22.6,11.1,20.7,13z"/><path d="M17,7v1c1.1,0,2,0.9,2,2c0,0.6-0.2,1.1-0.6,1.4l0.7,0.7c0.5-0.5,0.9-1.3,0.9-2.1C20,8.3,18.7,7,17,7z"/></g></svg>